<mxfile host="65bd71144e">
    <diagram id="HlGx-swqbu9TsWtugAFH" name="Page-2">
        <mxGraphModel dx="2457" dy="1115" grid="1" gridSize="10" guides="1" tooltips="1" connect="1" arrows="1" fold="1" page="1" pageScale="1" pageWidth="1200" pageHeight="1920" math="0" shadow="0">
            <root>
                <mxCell id="0"/>
                <mxCell id="1" parent="0"/>
                <mxCell id="u4t8vOh4ehWGzWZB7BTO-1" style="edgeStyle=orthogonalEdgeStyle;rounded=0;orthogonalLoop=1;jettySize=auto;html=1;exitX=0.75;exitY=0;exitDx=0;exitDy=0;exitPerimeter=0;entryX=0.31;entryY=1;entryDx=0;entryDy=0;entryPerimeter=0;labelBackgroundColor=default;fontSize=11;fontColor=#000000;startArrow=none;startFill=0;endArrow=classic;endFill=1;jumpStyle=arc;movable=0;resizable=0;rotatable=0;deletable=0;editable=0;locked=1;connectable=0;" edge="1" parent="1" source="u4t8vOh4ehWGzWZB7BTO-28" target="u4t8vOh4ehWGzWZB7BTO-81">
                    <mxGeometry relative="1" as="geometry">
                        <Array as="points">
                            <mxPoint x="323" y="610"/>
                            <mxPoint x="553" y="610"/>
                        </Array>
                    </mxGeometry>
                </mxCell>
                <mxCell id="u4t8vOh4ehWGzWZB7BTO-2" value="r&lt;br&gt;s2" style="edgeLabel;html=1;align=center;verticalAlign=middle;resizable=0;points=[];fontSize=11;fontColor=#000000;movable=0;rotatable=0;deletable=0;editable=0;locked=1;connectable=0;" vertex="1" connectable="0" parent="u4t8vOh4ehWGzWZB7BTO-1">
                    <mxGeometry x="0.343" y="1" relative="1" as="geometry">
                        <mxPoint as="offset"/>
                    </mxGeometry>
                </mxCell>
                <mxCell id="u4t8vOh4ehWGzWZB7BTO-3" style="rounded=0;orthogonalLoop=1;jettySize=auto;html=1;exitX=1;exitY=0.5;exitDx=0;exitDy=0;entryX=0;entryY=0.5;entryDx=0;entryDy=0;fontSize=11;fontColor=#000000;startArrow=none;startFill=0;endArrow=classic;endFill=1;elbow=vertical;jumpStyle=arc;movable=0;resizable=0;rotatable=0;deletable=0;editable=0;locked=1;connectable=0;" edge="1" parent="1" source="u4t8vOh4ehWGzWZB7BTO-12" target="u4t8vOh4ehWGzWZB7BTO-65">
                    <mxGeometry relative="1" as="geometry">
                        <mxPoint x="483" y="432.52380952380963" as="sourcePoint"/>
                    </mxGeometry>
                </mxCell>
                <mxCell id="u4t8vOh4ehWGzWZB7BTO-4" style="edgeStyle=orthogonalEdgeStyle;rounded=0;orthogonalLoop=1;jettySize=auto;html=1;exitX=1;exitY=0.5;exitDx=0;exitDy=0;entryX=0.308;entryY=1;entryDx=0;entryDy=0;entryPerimeter=0;startArrow=classic;startFill=1;endArrow=none;endFill=0;fontColor=#000000;movable=0;resizable=0;rotatable=0;deletable=0;editable=0;locked=1;connectable=0;" edge="1" parent="1">
                    <mxGeometry relative="1" as="geometry">
                        <Array as="points">
                            <mxPoint x="438" y="787"/>
                        </Array>
                        <mxPoint x="389" y="787" as="sourcePoint"/>
                        <mxPoint x="447.32000000000016" y="693" as="targetPoint"/>
                    </mxGeometry>
                </mxCell>
                <mxCell id="u4t8vOh4ehWGzWZB7BTO-5" value="w&lt;br&gt;s3" style="edgeLabel;html=1;align=center;verticalAlign=middle;resizable=0;points=[];fontSize=11;fontColor=#000000;movable=0;rotatable=0;deletable=0;editable=0;locked=1;connectable=0;" vertex="1" connectable="0" parent="u4t8vOh4ehWGzWZB7BTO-4">
                    <mxGeometry x="0.3955" y="1" relative="1" as="geometry">
                        <mxPoint y="8" as="offset"/>
                    </mxGeometry>
                </mxCell>
                <mxCell id="u4t8vOh4ehWGzWZB7BTO-6" style="edgeStyle=elbowEdgeStyle;orthogonalLoop=1;jettySize=auto;html=1;entryX=0;entryY=0.2;entryDx=0;entryDy=0;entryPerimeter=0;fontSize=11;fontColor=#000000;startArrow=none;startFill=0;endArrow=classic;endFill=1;rounded=0;movable=0;resizable=0;rotatable=0;deletable=0;editable=0;locked=1;connectable=0;" edge="1" parent="1" source="u4t8vOh4ehWGzWZB7BTO-9" target="u4t8vOh4ehWGzWZB7BTO-28">
                    <mxGeometry relative="1" as="geometry">
                        <Array as="points">
                            <mxPoint x="213" y="590"/>
                            <mxPoint x="193" y="620"/>
                            <mxPoint x="203" y="620"/>
                            <mxPoint x="193" y="600"/>
                        </Array>
                    </mxGeometry>
                </mxCell>
                <mxCell id="u4t8vOh4ehWGzWZB7BTO-7" value="" style="group;movable=0;resizable=0;rotatable=0;deletable=0;editable=0;locked=1;connectable=0;" vertex="1" connectable="0" parent="1">
                    <mxGeometry x="240" y="388" width="220" height="200" as="geometry"/>
                </mxCell>
                <mxCell id="u4t8vOh4ehWGzWZB7BTO-8" value="" style="group;movable=0;resizable=0;rotatable=0;deletable=0;editable=0;locked=1;connectable=0;" vertex="1" connectable="0" parent="u4t8vOh4ehWGzWZB7BTO-7">
                    <mxGeometry width="220" height="200" as="geometry"/>
                </mxCell>
                <mxCell id="u4t8vOh4ehWGzWZB7BTO-9" value="&lt;br&gt;&lt;br&gt;&lt;br&gt;&lt;br&gt;&lt;br&gt;&lt;br&gt;&lt;br&gt;&lt;br&gt;&lt;br&gt;&lt;br&gt;&lt;br&gt;&lt;br&gt;MSHRCtl" style="rounded=0;whiteSpace=wrap;html=1;points=[[0,0,0,0,0],[0,0.09,0,0,0],[0,0.18,0,0,0],[0,0.25,0,0,0],[0,0.27,0,0,0],[0,0.36,0,0,0],[0,0.45,0,0,0],[0,0.5,0,0,0],[0,0.55,0,0,0],[0,0.64,0,0,0],[0,0.73,0,0,0],[0,0.75,0,0,0],[0,0.82,0,0,0],[0,0.91,0,0,0],[0,1,0,0,0],[0.09,0,0,0,0],[0.09,1,0,0,0],[0.18,0,0,0,0],[0.18,1,0,0,0],[0.25,0,0,0,0],[0.25,1,0,0,0],[0.27,0,0,0,0],[0.27,1,0,0,0],[0.36,0,0,0,0],[0.36,1,0,0,0],[0.45,0,0,0,0],[0.45,1,0,0,0],[0.5,0,0,0,0],[0.5,1,0,0,0],[0.55,0,0,0,0],[0.55,1,0,0,0],[0.64,0,0,0,0],[0.64,1,0,0,0],[0.73,0,0,0,0],[0.73,1,0,0,0],[0.75,0,0,0,0],[0.75,1,0,0,0],[0.82,0,0,0,0],[0.82,1,0,0,0],[0.91,0,0,0,0],[0.91,1,0,0,0],[1,0,0,0,0],[1,0.09,0,0,0],[1,0.18,0,0,0],[1,0.25,0,0,0],[1,0.27,0,0,0],[1,0.36,0,0,0],[1,0.45,0,0,0],[1,0.5,0,0,0],[1,0.55,0,0,0],[1,0.64,0,0,0],[1,0.73,0,0,0],[1,0.75,0,0,0],[1,0.82,0,0,0],[1,0.91,0,0,0],[1,1,0,0,0]];align=right;fontColor=#000000;movable=0;resizable=0;rotatable=0;deletable=0;editable=0;locked=1;connectable=0;" vertex="1" parent="u4t8vOh4ehWGzWZB7BTO-8">
                    <mxGeometry width="220" height="200" as="geometry"/>
                </mxCell>
                <mxCell id="u4t8vOh4ehWGzWZB7BTO-10" value="MSHRs" style="rounded=0;whiteSpace=wrap;html=1;movable=0;resizable=0;rotatable=0;deletable=0;editable=0;locked=1;connectable=0;" vertex="1" parent="u4t8vOh4ehWGzWZB7BTO-8">
                    <mxGeometry x="27" y="72" width="110" height="108" as="geometry"/>
                </mxCell>
                <mxCell id="u4t8vOh4ehWGzWZB7BTO-11" value="sourceB" style="rounded=0;whiteSpace=wrap;html=1;movable=0;resizable=0;rotatable=0;deletable=0;editable=0;locked=1;connectable=0;" vertex="1" parent="u4t8vOh4ehWGzWZB7BTO-7">
                    <mxGeometry width="110" height="50" as="geometry"/>
                </mxCell>
                <mxCell id="u4t8vOh4ehWGzWZB7BTO-12" value="AcquireUnit" style="rounded=0;whiteSpace=wrap;html=1;movable=0;resizable=0;rotatable=0;deletable=0;editable=0;locked=1;connectable=0;" vertex="1" parent="u4t8vOh4ehWGzWZB7BTO-7">
                    <mxGeometry x="110" width="110" height="50" as="geometry"/>
                </mxCell>
                <mxCell id="u4t8vOh4ehWGzWZB7BTO-13" style="edgeStyle=orthogonalEdgeStyle;rounded=0;orthogonalLoop=1;jettySize=auto;html=1;exitX=0.5;exitY=1;exitDx=0;exitDy=0;fontColor=#000000;movable=0;resizable=0;rotatable=0;deletable=0;editable=0;locked=1;connectable=0;" edge="1" parent="1">
                    <mxGeometry relative="1" as="geometry">
                        <mxPoint x="151.00000000000045" y="767" as="sourcePoint"/>
                        <mxPoint x="151.00000000000045" y="767" as="targetPoint"/>
                    </mxGeometry>
                </mxCell>
                <mxCell id="u4t8vOh4ehWGzWZB7BTO-14" style="edgeStyle=orthogonalEdgeStyle;rounded=0;orthogonalLoop=1;jettySize=auto;html=1;exitX=1;exitY=0.76;exitDx=0;exitDy=0;entryX=0;entryY=0.8;entryDx=0;entryDy=0;startArrow=none;startFill=0;endArrow=classic;endFill=1;entryPerimeter=0;fontColor=#000000;exitPerimeter=0;movable=0;resizable=0;rotatable=0;deletable=0;editable=0;locked=1;connectable=0;" edge="1" parent="1" source="u4t8vOh4ehWGzWZB7BTO-21" target="u4t8vOh4ehWGzWZB7BTO-28">
                    <mxGeometry relative="1" as="geometry">
                        <Array as="points">
                            <mxPoint x="203" y="743"/>
                            <mxPoint x="203" y="681"/>
                        </Array>
                    </mxGeometry>
                </mxCell>
                <mxCell id="u4t8vOh4ehWGzWZB7BTO-15" style="edgeStyle=orthogonalEdgeStyle;rounded=0;orthogonalLoop=1;jettySize=auto;html=1;entryX=0;entryY=0.5;entryDx=0;entryDy=0;fontSize=11;startArrow=none;startFill=0;endArrow=classic;endFill=1;exitX=0.75;exitY=1;exitDx=0;exitDy=0;fontColor=#000000;exitPerimeter=0;movable=0;resizable=0;rotatable=0;deletable=0;editable=0;locked=1;connectable=0;" edge="1" parent="1" source="u4t8vOh4ehWGzWZB7BTO-21" target="u4t8vOh4ehWGzWZB7BTO-97">
                    <mxGeometry relative="1" as="geometry">
                        <Array as="points">
                            <mxPoint x="140" y="754"/>
                            <mxPoint x="140" y="862"/>
                        </Array>
                    </mxGeometry>
                </mxCell>
                <mxCell id="u4t8vOh4ehWGzWZB7BTO-16" value="w0&lt;sup&gt;%&lt;/sup&gt;" style="edgeLabel;html=1;align=center;verticalAlign=middle;resizable=0;points=[];fontSize=11;fontColor=#000000;movable=0;rotatable=0;deletable=0;editable=0;locked=1;connectable=0;" vertex="1" connectable="0" parent="u4t8vOh4ehWGzWZB7BTO-15">
                    <mxGeometry x="0.3889" y="-1" relative="1" as="geometry">
                        <mxPoint x="-31" y="-62" as="offset"/>
                    </mxGeometry>
                </mxCell>
                <mxCell id="u4t8vOh4ehWGzWZB7BTO-17" style="edgeStyle=orthogonalEdgeStyle;rounded=0;orthogonalLoop=1;jettySize=auto;elbow=vertical;html=1;entryX=0;entryY=0.91;entryDx=0;entryDy=0;entryPerimeter=0;labelBackgroundColor=default;fontSize=11;fontColor=#FFD966;startArrow=none;startFill=0;endArrow=classic;endFill=1;exitX=1;exitY=0.33;exitDx=0;exitDy=0;exitPerimeter=0;dashed=1;movable=0;resizable=0;rotatable=0;deletable=0;editable=0;locked=1;connectable=0;" edge="1" parent="1" source="u4t8vOh4ehWGzWZB7BTO-21" target="u4t8vOh4ehWGzWZB7BTO-9">
                    <mxGeometry relative="1" as="geometry">
                        <Array as="points">
                            <mxPoint x="190" y="724"/>
                            <mxPoint x="190" y="570"/>
                        </Array>
                    </mxGeometry>
                </mxCell>
                <mxCell id="u4t8vOh4ehWGzWZB7BTO-18" value="c&lt;br&gt;resp" style="edgeLabel;html=1;align=center;verticalAlign=middle;resizable=0;points=[];fontSize=11;fontColor=#FFD966;movable=0;rotatable=0;deletable=0;editable=0;locked=1;connectable=0;" vertex="1" connectable="0" parent="u4t8vOh4ehWGzWZB7BTO-17">
                    <mxGeometry x="0.8199" relative="1" as="geometry">
                        <mxPoint x="-30" y="18" as="offset"/>
                    </mxGeometry>
                </mxCell>
                <mxCell id="u4t8vOh4ehWGzWZB7BTO-19" style="edgeStyle=orthogonalEdgeStyle;rounded=0;orthogonalLoop=1;jettySize=auto;html=1;exitX=0.25;exitY=1;exitDx=0;exitDy=0;exitPerimeter=0;entryX=0;entryY=0.5;entryDx=0;entryDy=0;strokeWidth=1;fontColor=#97D077;startArrow=none;startFill=0;endArrow=classic;endFill=1;startSize=6;endSize=6;movable=0;resizable=0;rotatable=0;deletable=0;editable=0;locked=1;connectable=0;" edge="1" parent="1" source="u4t8vOh4ehWGzWZB7BTO-21" target="u4t8vOh4ehWGzWZB7BTO-94">
                    <mxGeometry relative="1" as="geometry"/>
                </mxCell>
                <mxCell id="u4t8vOh4ehWGzWZB7BTO-20" value="&lt;font color=&quot;#000000&quot;&gt;w&lt;sup&gt;@&lt;/sup&gt;&lt;/font&gt;" style="edgeLabel;html=1;align=center;verticalAlign=middle;resizable=0;points=[];fontColor=#97D077;movable=0;rotatable=0;deletable=0;editable=0;locked=1;connectable=0;" vertex="1" connectable="0" parent="u4t8vOh4ehWGzWZB7BTO-19">
                    <mxGeometry x="-0.3062" y="-3" relative="1" as="geometry">
                        <mxPoint y="-10" as="offset"/>
                    </mxGeometry>
                </mxCell>
                <mxCell id="u4t8vOh4ehWGzWZB7BTO-21" value="sinkC" style="rounded=0;whiteSpace=wrap;html=1;points=[[0,0,0,0,0],[0,0.24,0,0,0],[0,0.51,0,0,0],[0,0.76,0,0,0],[0,1,0,0,0],[0.25,0,0,0,0],[0.25,1,0,0,0],[0.5,0,0,0,0],[0.5,1,0,0,0],[0.75,0,0,0,0],[0.75,1,0,0,0],[1,0,0,0,0],[1,0.24,0,0,0],[1,0.33,0,0,0],[1,0.51,0,0,0],[1,0.67,0,0,0],[1,0.76,0,0,0],[1,1,0,0,0]];movable=0;resizable=0;rotatable=0;deletable=0;editable=0;locked=1;connectable=0;" vertex="1" parent="1">
                    <mxGeometry x="61" y="709" width="110" height="45" as="geometry"/>
                </mxCell>
                <mxCell id="u4t8vOh4ehWGzWZB7BTO-22" style="edgeStyle=orthogonalEdgeStyle;rounded=0;orthogonalLoop=1;jettySize=auto;html=1;exitX=1;exitY=0.5;exitDx=0;exitDy=0;entryX=0;entryY=0.4;entryDx=0;entryDy=0;entryPerimeter=0;fontSize=11;fontColor=#000000;startArrow=none;startFill=0;endArrow=classic;endFill=1;movable=0;resizable=0;rotatable=0;deletable=0;editable=0;locked=1;connectable=0;" edge="1" parent="1" source="u4t8vOh4ehWGzWZB7BTO-23" target="u4t8vOh4ehWGzWZB7BTO-28">
                    <mxGeometry relative="1" as="geometry">
                        <Array as="points">
                            <mxPoint x="203" y="610"/>
                            <mxPoint x="203" y="657"/>
                        </Array>
                    </mxGeometry>
                </mxCell>
                <mxCell id="u4t8vOh4ehWGzWZB7BTO-23" value="a_reqBuf" style="rounded=0;whiteSpace=wrap;html=1;movable=0;resizable=0;rotatable=0;deletable=0;editable=0;locked=1;connectable=0;" vertex="1" parent="1">
                    <mxGeometry x="61" y="577" width="110" height="50" as="geometry"/>
                </mxCell>
                <mxCell id="u4t8vOh4ehWGzWZB7BTO-24" style="edgeStyle=orthogonalEdgeStyle;rounded=0;orthogonalLoop=1;jettySize=auto;html=1;exitX=0.67;exitY=1;exitDx=0;exitDy=0;entryX=0;entryY=0.5;entryDx=0;entryDy=0;exitPerimeter=0;fontColor=#000000;movable=0;resizable=0;rotatable=0;deletable=0;editable=0;locked=1;connectable=0;" edge="1" parent="1" source="u4t8vOh4ehWGzWZB7BTO-28" target="u4t8vOh4ehWGzWZB7BTO-40">
                    <mxGeometry relative="1" as="geometry">
                        <Array as="points">
                            <mxPoint x="317" y="727"/>
                            <mxPoint x="317" y="787"/>
                        </Array>
                    </mxGeometry>
                </mxCell>
                <mxCell id="u4t8vOh4ehWGzWZB7BTO-25" value="r&lt;br&gt;s1" style="edgeLabel;html=1;align=center;verticalAlign=middle;resizable=0;points=[];fontSize=11;fontColor=#000000;movable=0;rotatable=0;deletable=0;editable=0;locked=1;connectable=0;" vertex="1" connectable="0" parent="u4t8vOh4ehWGzWZB7BTO-24">
                    <mxGeometry x="-0.4708" y="-2" relative="1" as="geometry">
                        <mxPoint x="2" y="12" as="offset"/>
                    </mxGeometry>
                </mxCell>
                <mxCell id="u4t8vOh4ehWGzWZB7BTO-26" style="edgeStyle=orthogonalEdgeStyle;rounded=0;orthogonalLoop=1;jettySize=auto;html=1;exitX=1;exitY=0.5;exitDx=0;exitDy=0;entryX=0;entryY=0.5;entryDx=0;entryDy=0;startArrow=none;startFill=0;endArrow=classic;endFill=1;fontColor=#000000;movable=0;resizable=0;rotatable=0;deletable=0;editable=0;locked=1;connectable=0;" edge="1" parent="1" source="u4t8vOh4ehWGzWZB7BTO-28" target="u4t8vOh4ehWGzWZB7BTO-90">
                    <mxGeometry relative="1" as="geometry"/>
                </mxCell>
                <mxCell id="u4t8vOh4ehWGzWZB7BTO-27" style="edgeStyle=orthogonalEdgeStyle;rounded=0;orthogonalLoop=1;jettySize=auto;html=1;exitX=0.33;exitY=1;exitDx=0;exitDy=0;exitPerimeter=0;fontSize=11;fontColor=#000000;startArrow=none;startFill=0;endArrow=classic;endFill=1;movable=0;resizable=0;rotatable=0;deletable=0;editable=0;locked=1;connectable=0;" edge="1" parent="1" source="u4t8vOh4ehWGzWZB7BTO-28" target="u4t8vOh4ehWGzWZB7BTO-97">
                    <mxGeometry relative="1" as="geometry"/>
                </mxCell>
                <mxCell id="u4t8vOh4ehWGzWZB7BTO-28" value="reqArb" style="rounded=0;whiteSpace=wrap;html=1;points=[[0,0,0,0,0],[0,0.2,0,0,0],[0,0.4,0,0,0],[0,0.6,0,0,0],[0,0.8,0,0,0],[0,1,0,0,0],[0.25,0,0,0,0],[0.33,1,0,0,0],[0.5,0,0,0,0],[0.67,1,0,0,0],[0.75,0,0,0,0],[1,0,0,0,0],[1,0.25,0,0,0],[1,0.5,0,0,0],[1,0.75,0,0,0],[1,1,0,0,0]];movable=0;resizable=0;rotatable=0;deletable=0;editable=0;locked=1;connectable=0;" vertex="1" parent="1">
                    <mxGeometry x="263" y="633" width="80" height="60" as="geometry"/>
                </mxCell>
                <mxCell id="u4t8vOh4ehWGzWZB7BTO-29" style="edgeStyle=orthogonalEdgeStyle;rounded=0;orthogonalLoop=1;jettySize=auto;html=1;exitX=1;exitY=0.67;exitDx=0;exitDy=0;startArrow=none;startFill=0;endArrow=classic;endFill=1;exitPerimeter=0;fontColor=#000000;movable=0;resizable=0;rotatable=0;deletable=0;editable=0;locked=1;connectable=0;" edge="1" parent="1" source="u4t8vOh4ehWGzWZB7BTO-90" target="u4t8vOh4ehWGzWZB7BTO-43">
                    <mxGeometry relative="1" as="geometry"/>
                </mxCell>
                <mxCell id="u4t8vOh4ehWGzWZB7BTO-30" style="edgeStyle=elbowEdgeStyle;rounded=0;orthogonalLoop=1;jettySize=auto;html=1;exitX=0.91;exitY=0;exitDx=0;exitDy=0;exitPerimeter=0;entryX=0.75;entryY=1;entryDx=0;entryDy=0;entryPerimeter=0;fontSize=11;fontColor=#000000;startArrow=none;startFill=0;endArrow=classic;endFill=1;movable=0;resizable=0;rotatable=0;deletable=0;editable=0;locked=1;connectable=0;" edge="1" parent="1" source="u4t8vOh4ehWGzWZB7BTO-90" target="u4t8vOh4ehWGzWZB7BTO-81">
                    <mxGeometry relative="1" as="geometry">
                        <Array as="points">
                            <mxPoint x="623" y="590"/>
                            <mxPoint x="626" y="590"/>
                            <mxPoint x="623" y="610"/>
                        </Array>
                    </mxGeometry>
                </mxCell>
                <mxCell id="u4t8vOh4ehWGzWZB7BTO-31" value="w1**&lt;br&gt;s5" style="edgeLabel;html=1;align=center;verticalAlign=middle;resizable=0;points=[];fontSize=11;fontColor=#000000;movable=0;rotatable=0;deletable=0;editable=0;locked=1;connectable=0;" vertex="1" connectable="0" parent="u4t8vOh4ehWGzWZB7BTO-30">
                    <mxGeometry x="0.2517" relative="1" as="geometry">
                        <mxPoint y="4" as="offset"/>
                    </mxGeometry>
                </mxCell>
                <mxCell id="u4t8vOh4ehWGzWZB7BTO-32" style="edgeStyle=elbowEdgeStyle;rounded=0;orthogonalLoop=1;jettySize=auto;html=1;entryX=1;entryY=0.5;entryDx=0;entryDy=0;entryPerimeter=0;fontSize=11;fontColor=#000000;startArrow=none;startFill=0;endArrow=classic;endFill=1;jumpStyle=arc;movable=0;resizable=0;rotatable=0;deletable=0;editable=0;locked=1;connectable=0;" edge="1" parent="1" target="u4t8vOh4ehWGzWZB7BTO-50">
                    <mxGeometry relative="1" as="geometry">
                        <Array as="points">
                            <mxPoint x="707" y="540"/>
                        </Array>
                        <mxPoint x="707" y="720" as="sourcePoint"/>
                        <mxPoint x="677" y="359.0000000000001" as="targetPoint"/>
                    </mxGeometry>
                </mxCell>
                <mxCell id="u4t8vOh4ehWGzWZB7BTO-33" style="rounded=0;orthogonalLoop=1;jettySize=auto;html=1;exitX=0.18;exitY=0;exitDx=0;exitDy=0;exitPerimeter=0;entryX=0.82;entryY=1;entryDx=0;entryDy=0;entryPerimeter=0;fontSize=11;fontColor=#000000;startArrow=none;startFill=0;endArrow=classic;endFill=1;edgeStyle=elbowEdgeStyle;movable=0;resizable=0;rotatable=0;deletable=0;editable=0;locked=1;connectable=0;" edge="1" parent="1" source="u4t8vOh4ehWGzWZB7BTO-90" target="u4t8vOh4ehWGzWZB7BTO-9">
                    <mxGeometry relative="1" as="geometry">
                        <Array as="points">
                            <mxPoint x="420" y="610"/>
                            <mxPoint x="400" y="610"/>
                        </Array>
                    </mxGeometry>
                </mxCell>
                <mxCell id="u4t8vOh4ehWGzWZB7BTO-34" value="alloc" style="edgeLabel;html=1;align=center;verticalAlign=middle;resizable=0;points=[];fontSize=11;fontColor=#000000;movable=0;rotatable=0;deletable=0;editable=0;locked=1;connectable=0;" vertex="1" connectable="0" parent="u4t8vOh4ehWGzWZB7BTO-33">
                    <mxGeometry x="0.3021" y="1" relative="1" as="geometry">
                        <mxPoint x="1" y="7" as="offset"/>
                    </mxGeometry>
                </mxCell>
                <mxCell id="u4t8vOh4ehWGzWZB7BTO-35" style="edgeStyle=orthogonalEdgeStyle;rounded=0;orthogonalLoop=1;jettySize=auto;html=1;exitX=0.5;exitY=0;exitDx=0;exitDy=0;entryX=0.5;entryY=1;entryDx=0;entryDy=0;startArrow=classic;startFill=1;fontColor=#000000;movable=0;resizable=0;rotatable=0;deletable=0;editable=0;locked=1;connectable=0;" edge="1" parent="1" source="u4t8vOh4ehWGzWZB7BTO-37">
                    <mxGeometry relative="1" as="geometry">
                        <mxPoint x="503" y="693" as="targetPoint"/>
                    </mxGeometry>
                </mxCell>
                <mxCell id="u4t8vOh4ehWGzWZB7BTO-36" value="&lt;div style=&quot;text-align: justify;&quot;&gt;&amp;nbsp;r&amp;nbsp; | w | rr&lt;/div&gt;s3| s3| s5" style="edgeLabel;html=1;align=center;verticalAlign=middle;resizable=0;points=[];fontSize=11;fontColor=#000000;movable=0;rotatable=0;deletable=0;editable=0;locked=1;connectable=0;" vertex="1" connectable="0" parent="u4t8vOh4ehWGzWZB7BTO-35">
                    <mxGeometry x="0.1815" y="1" relative="1" as="geometry">
                        <mxPoint x="1" y="15" as="offset"/>
                    </mxGeometry>
                </mxCell>
                <mxCell id="u4t8vOh4ehWGzWZB7BTO-37" value="DS" style="rounded=0;whiteSpace=wrap;html=1;movable=0;resizable=0;rotatable=0;deletable=0;editable=0;locked=1;connectable=0;" vertex="1" parent="1">
                    <mxGeometry x="468" y="762" width="70" height="50" as="geometry"/>
                </mxCell>
                <mxCell id="u4t8vOh4ehWGzWZB7BTO-38" style="edgeStyle=orthogonalEdgeStyle;rounded=0;orthogonalLoop=1;jettySize=auto;html=1;exitX=1;exitY=0.25;exitDx=0;exitDy=0;entryX=0.25;entryY=1;entryDx=0;entryDy=0;startArrow=none;startFill=0;fontColor=#000000;movable=0;resizable=0;rotatable=0;deletable=0;editable=0;locked=1;connectable=0;" edge="1" parent="1">
                    <mxGeometry relative="1" as="geometry">
                        <mxPoint x="378" y="774.5" as="sourcePoint"/>
                        <mxPoint x="413" y="693" as="targetPoint"/>
                    </mxGeometry>
                </mxCell>
                <mxCell id="u4t8vOh4ehWGzWZB7BTO-39" value="rr*&lt;br&gt;s3" style="edgeLabel;html=1;align=center;verticalAlign=middle;resizable=0;points=[];fontSize=11;fontColor=#000000;movable=0;rotatable=0;deletable=0;editable=0;locked=1;connectable=0;" vertex="1" connectable="0" parent="u4t8vOh4ehWGzWZB7BTO-38">
                    <mxGeometry x="0.1949" y="2" relative="1" as="geometry">
                        <mxPoint x="1" y="-2" as="offset"/>
                    </mxGeometry>
                </mxCell>
                <mxCell id="u4t8vOh4ehWGzWZB7BTO-40" value="Dir" style="rounded=0;whiteSpace=wrap;html=1;movable=0;resizable=0;rotatable=0;deletable=0;editable=0;locked=1;connectable=0;" vertex="1" parent="1">
                    <mxGeometry x="334" y="762" width="70" height="50" as="geometry"/>
                </mxCell>
                <mxCell id="u4t8vOh4ehWGzWZB7BTO-41" style="edgeStyle=orthogonalEdgeStyle;rounded=0;orthogonalLoop=1;jettySize=auto;html=1;entryX=1;entryY=0.91;entryDx=0;entryDy=0;entryPerimeter=0;labelBackgroundColor=default;fontSize=11;fontColor=#FFD966;startArrow=none;startFill=0;endArrow=classic;endFill=1;elbow=vertical;exitX=0.5;exitY=0;exitDx=0;exitDy=0;dashed=1;movable=0;resizable=0;rotatable=0;deletable=0;editable=0;locked=1;connectable=0;" edge="1" parent="1" source="u4t8vOh4ehWGzWZB7BTO-43" target="u4t8vOh4ehWGzWZB7BTO-9">
                    <mxGeometry relative="1" as="geometry"/>
                </mxCell>
                <mxCell id="u4t8vOh4ehWGzWZB7BTO-42" value="sourceC&lt;br&gt;resp" style="edgeLabel;html=1;align=center;verticalAlign=middle;resizable=0;points=[];fontSize=11;fontColor=#FFD966;movable=0;rotatable=0;deletable=0;editable=0;locked=1;connectable=0;" vertex="1" connectable="0" parent="u4t8vOh4ehWGzWZB7BTO-41">
                    <mxGeometry x="-0.322" y="1" relative="1" as="geometry">
                        <mxPoint x="4" y="-3" as="offset"/>
                    </mxGeometry>
                </mxCell>
                <mxCell id="u4t8vOh4ehWGzWZB7BTO-43" value="sourceC" style="rounded=0;whiteSpace=wrap;html=1;movable=0;resizable=0;rotatable=0;deletable=0;editable=0;locked=1;connectable=0;" vertex="1" parent="1">
                    <mxGeometry x="731" y="648" width="110" height="50" as="geometry"/>
                </mxCell>
                <mxCell id="u4t8vOh4ehWGzWZB7BTO-44" value="sourceD" style="rounded=1;whiteSpace=wrap;html=1;dashed=1;dashPattern=8 8;movable=0;resizable=0;rotatable=0;deletable=0;editable=0;locked=1;connectable=0;" vertex="1" parent="1">
                    <mxGeometry x="61" y="344" width="110" height="50" as="geometry"/>
                </mxCell>
                <mxCell id="u4t8vOh4ehWGzWZB7BTO-45" style="rounded=0;orthogonalLoop=1;jettySize=auto;html=1;exitX=1;exitY=0.25;exitDx=0;exitDy=0;entryX=0;entryY=0.5;entryDx=0;entryDy=0;startArrow=classic;startFill=1;endArrow=none;endFill=0;fontColor=#000000;jumpStyle=arc;edgeStyle=elbowEdgeStyle;movable=0;resizable=0;rotatable=0;deletable=0;editable=0;locked=1;connectable=0;" edge="1" parent="1" source="u4t8vOh4ehWGzWZB7BTO-78" target="u4t8vOh4ehWGzWZB7BTO-56">
                    <mxGeometry relative="1" as="geometry">
                        <Array as="points">
                            <mxPoint x="731" y="460"/>
                            <mxPoint x="720" y="460"/>
                        </Array>
                    </mxGeometry>
                </mxCell>
                <mxCell id="u4t8vOh4ehWGzWZB7BTO-46" style="edgeStyle=elbowEdgeStyle;rounded=0;orthogonalLoop=1;jettySize=auto;html=1;entryX=0.5;entryY=0;entryDx=0;entryDy=0;fontSize=11;fontColor=#000000;startArrow=none;startFill=0;endArrow=classic;endFill=1;entryPerimeter=0;labelBackgroundColor=default;movable=0;resizable=0;rotatable=0;deletable=0;editable=0;locked=1;connectable=0;" edge="1" parent="1" source="u4t8vOh4ehWGzWZB7BTO-78" target="u4t8vOh4ehWGzWZB7BTO-81">
                    <mxGeometry relative="1" as="geometry"/>
                </mxCell>
                <mxCell id="u4t8vOh4ehWGzWZB7BTO-47" style="edgeStyle=elbowEdgeStyle;rounded=0;orthogonalLoop=1;jettySize=auto;elbow=vertical;html=1;entryX=1;entryY=0.5;entryDx=0;entryDy=0;labelBackgroundColor=default;fontSize=11;fontColor=#000000;startArrow=none;startFill=0;endArrow=classic;endFill=1;exitX=0;exitY=0.67;exitDx=0;exitDy=0;exitPerimeter=0;movable=0;resizable=0;rotatable=0;deletable=0;editable=0;locked=1;connectable=0;" edge="1" parent="1" source="u4t8vOh4ehWGzWZB7BTO-50" target="u4t8vOh4ehWGzWZB7BTO-44">
                    <mxGeometry relative="1" as="geometry">
                        <Array as="points">
                            <mxPoint x="340" y="369"/>
                            <mxPoint x="490" y="379"/>
                            <mxPoint x="490" y="384"/>
                        </Array>
                    </mxGeometry>
                </mxCell>
                <mxCell id="u4t8vOh4ehWGzWZB7BTO-48" style="edgeStyle=elbowEdgeStyle;rounded=0;orthogonalLoop=1;jettySize=auto;elbow=vertical;html=1;exitX=0.5;exitY=1;exitDx=0;exitDy=0;exitPerimeter=0;entryX=1;entryY=0.27;entryDx=0;entryDy=0;entryPerimeter=0;labelBackgroundColor=default;fontSize=11;fontColor=#FFD966;startArrow=none;startFill=0;endArrow=classic;endFill=1;dashed=1;jumpStyle=arc;movable=0;resizable=0;rotatable=0;deletable=0;editable=0;locked=1;connectable=0;" edge="1" parent="1" source="u4t8vOh4ehWGzWZB7BTO-50" target="u4t8vOh4ehWGzWZB7BTO-9">
                    <mxGeometry relative="1" as="geometry">
                        <Array as="points">
                            <mxPoint x="520" y="442"/>
                        </Array>
                    </mxGeometry>
                </mxCell>
                <mxCell id="u4t8vOh4ehWGzWZB7BTO-49" value="e resp" style="edgeLabel;html=1;align=center;verticalAlign=middle;resizable=0;points=[];fontSize=11;fontColor=#FFD966;movable=0;rotatable=0;deletable=0;editable=0;locked=1;connectable=0;" vertex="1" connectable="0" parent="u4t8vOh4ehWGzWZB7BTO-48">
                    <mxGeometry x="0.3222" y="2" relative="1" as="geometry">
                        <mxPoint x="4" y="-4" as="offset"/>
                    </mxGeometry>
                </mxCell>
                <mxCell id="u4t8vOh4ehWGzWZB7BTO-50" value="Grant Buf" style="rounded=0;whiteSpace=wrap;html=1;points=[[0,0,0,0,0],[0,0.25,0,0,0],[0,0.33,0,0,0],[0,0.5,0,0,0],[0,0.67,0,0,0],[0,0.75,0,0,0],[0,1,0,0,0],[0.25,0,0,0,0],[0.25,1,0,0,0],[0.5,0,0,0,0],[0.5,1,0,0,0],[0.75,0,0,0,0],[0.75,1,0,0,0],[1,0,0,0,0],[1,0.25,0,0,0],[1,0.5,0,0,0],[1,0.75,0,0,0],[1,1,0,0,0]];movable=0;resizable=0;rotatable=0;deletable=0;editable=0;locked=1;connectable=0;" vertex="1" parent="1">
                    <mxGeometry x="503" y="329" width="160" height="60" as="geometry"/>
                </mxCell>
                <mxCell id="u4t8vOh4ehWGzWZB7BTO-51" style="edgeStyle=orthogonalEdgeStyle;rounded=0;orthogonalLoop=1;jettySize=auto;html=1;exitX=1;exitY=0.25;exitDx=0;exitDy=0;fontSize=11;startArrow=none;startFill=0;endArrow=classic;endFill=1;entryX=0.73;entryY=1;entryDx=0;entryDy=0;entryPerimeter=0;fontColor=#000000;movable=0;resizable=0;rotatable=0;deletable=0;editable=0;locked=1;connectable=0;" edge="1" parent="1">
                    <mxGeometry relative="1" as="geometry">
                        <mxPoint x="570.6999999999998" y="693" as="targetPoint"/>
                        <mxPoint x="355" y="847" as="sourcePoint"/>
                    </mxGeometry>
                </mxCell>
                <mxCell id="u4t8vOh4ehWGzWZB7BTO-52" style="edgeStyle=orthogonalEdgeStyle;rounded=0;orthogonalLoop=1;jettySize=auto;elbow=vertical;html=1;exitX=1;exitY=0.5;exitDx=0;exitDy=0;entryX=0;entryY=0.33;entryDx=0;entryDy=0;entryPerimeter=0;labelBackgroundColor=default;fontSize=11;fontColor=#000000;startArrow=none;startFill=0;endArrow=classic;endFill=1;movable=0;resizable=0;rotatable=0;deletable=0;editable=0;locked=1;connectable=0;" edge="1" parent="1" source="u4t8vOh4ehWGzWZB7BTO-53" target="u4t8vOh4ehWGzWZB7BTO-50">
                    <mxGeometry relative="1" as="geometry">
                        <Array as="points">
                            <mxPoint x="210" y="299"/>
                            <mxPoint x="210" y="349"/>
                        </Array>
                    </mxGeometry>
                </mxCell>
                <mxCell id="u4t8vOh4ehWGzWZB7BTO-53" value="sinke" style="rounded=1;whiteSpace=wrap;html=1;dashed=1;dashPattern=8 8;movable=0;resizable=0;rotatable=0;deletable=0;editable=0;locked=1;connectable=0;" vertex="1" parent="1">
                    <mxGeometry x="61" y="274" width="110" height="50" as="geometry"/>
                </mxCell>
                <mxCell id="u4t8vOh4ehWGzWZB7BTO-54" style="edgeStyle=none;html=1;exitX=0.5;exitY=1;exitDx=0;exitDy=0;dashed=1;dashPattern=1 1;endArrow=oval;endFill=1;endSize=1;movable=0;resizable=0;rotatable=0;deletable=0;editable=0;locked=1;connectable=0;" edge="1" parent="1" source="u4t8vOh4ehWGzWZB7BTO-55">
                    <mxGeometry relative="1" as="geometry">
                        <mxPoint x="-175" y="612" as="targetPoint"/>
                    </mxGeometry>
                </mxCell>
                <mxCell id="u4t8vOh4ehWGzWZB7BTO-55" value="prefetcher" style="rounded=1;whiteSpace=wrap;html=1;dashed=1;dashPattern=8 8;movable=0;resizable=0;rotatable=0;deletable=0;editable=0;locked=1;connectable=0;" vertex="1" parent="1">
                    <mxGeometry x="-230" y="500" width="110" height="50" as="geometry"/>
                </mxCell>
                <mxCell id="u4t8vOh4ehWGzWZB7BTO-56" value="sinkD" style="rounded=1;whiteSpace=wrap;html=1;dashed=1;dashPattern=8 8;movable=0;resizable=0;rotatable=0;deletable=0;editable=0;locked=1;connectable=0;" vertex="1" parent="1">
                    <mxGeometry x="731" y="438" width="110" height="50" as="geometry"/>
                </mxCell>
                <mxCell id="u4t8vOh4ehWGzWZB7BTO-57" style="rounded=0;orthogonalLoop=1;jettySize=auto;html=1;exitX=0.56;exitY=1;exitDx=0;exitDy=0;exitPerimeter=0;fontSize=11;fontColor=#000000;startArrow=none;startFill=0;endArrow=classic;endFill=1;edgeStyle=elbowEdgeStyle;entryX=0.749;entryY=0.001;entryDx=0;entryDy=0;entryPerimeter=0;movable=0;resizable=0;rotatable=0;deletable=0;editable=0;locked=1;connectable=0;" edge="1" parent="1" source="u4t8vOh4ehWGzWZB7BTO-81" target="u4t8vOh4ehWGzWZB7BTO-90">
                    <mxGeometry relative="1" as="geometry">
                        <Array as="points">
                            <mxPoint x="590" y="600"/>
                        </Array>
                        <mxPoint x="590" y="630" as="targetPoint"/>
                    </mxGeometry>
                </mxCell>
                <mxCell id="u4t8vOh4ehWGzWZB7BTO-58" value="rr&lt;br&gt;s3" style="edgeLabel;html=1;align=center;verticalAlign=middle;resizable=0;points=[];fontSize=11;fontColor=#000000;movable=0;rotatable=0;deletable=0;editable=0;locked=1;connectable=0;" vertex="1" connectable="0" parent="u4t8vOh4ehWGzWZB7BTO-57">
                    <mxGeometry x="0.177" y="1" relative="1" as="geometry">
                        <mxPoint x="-1" y="-7" as="offset"/>
                    </mxGeometry>
                </mxCell>
                <mxCell id="u4t8vOh4ehWGzWZB7BTO-59" style="edgeStyle=elbowEdgeStyle;rounded=0;orthogonalLoop=1;jettySize=auto;html=1;entryX=0.5;entryY=0;entryDx=0;entryDy=0;fontSize=11;fontColor=#000000;startArrow=none;startFill=0;endArrow=classic;endFill=1;movable=0;resizable=0;rotatable=0;deletable=0;editable=0;locked=1;connectable=0;" edge="1" parent="1" source="u4t8vOh4ehWGzWZB7BTO-62" target="u4t8vOh4ehWGzWZB7BTO-23">
                    <mxGeometry relative="1" as="geometry"/>
                </mxCell>
                <mxCell id="u4t8vOh4ehWGzWZB7BTO-60" style="edgeStyle=elbowEdgeStyle;rounded=0;orthogonalLoop=1;jettySize=auto;html=1;exitX=1;exitY=0.75;exitDx=0;exitDy=0;entryX=0;entryY=0.73;entryDx=0;entryDy=0;entryPerimeter=0;labelBackgroundColor=default;fontSize=11;fontColor=#000000;startArrow=none;startFill=0;endArrow=classic;endFill=1;elbow=vertical;jumpStyle=arc;movable=0;resizable=0;rotatable=0;deletable=0;editable=0;locked=1;connectable=0;" edge="1" parent="1" source="u4t8vOh4ehWGzWZB7BTO-62" target="u4t8vOh4ehWGzWZB7BTO-9">
                    <mxGeometry relative="1" as="geometry">
                        <Array as="points">
                            <mxPoint x="220" y="534"/>
                        </Array>
                    </mxGeometry>
                </mxCell>
                <mxCell id="u4t8vOh4ehWGzWZB7BTO-61" value="pb&lt;sup&gt;-&lt;/sup&gt;" style="edgeLabel;html=1;align=center;verticalAlign=middle;resizable=0;points=[];fontSize=11;fontColor=#000000;movable=0;rotatable=0;deletable=0;editable=0;locked=1;connectable=0;" vertex="1" connectable="0" parent="u4t8vOh4ehWGzWZB7BTO-60">
                    <mxGeometry x="-0.1595" relative="1" as="geometry">
                        <mxPoint as="offset"/>
                    </mxGeometry>
                </mxCell>
                <mxCell id="u4t8vOh4ehWGzWZB7BTO-62" value="sinkA" style="rounded=0;whiteSpace=wrap;html=1;movable=0;resizable=0;rotatable=0;deletable=0;editable=0;locked=1;connectable=0;" vertex="1" parent="1">
                    <mxGeometry x="61" y="510" width="110" height="50" as="geometry"/>
                </mxCell>
                <mxCell id="u4t8vOh4ehWGzWZB7BTO-63" style="edgeStyle=orthogonalEdgeStyle;rounded=0;orthogonalLoop=1;jettySize=auto;html=1;entryX=1;entryY=0.64;entryDx=0;entryDy=0;fontSize=11;fontColor=#000000;startArrow=classic;startFill=1;endArrow=none;endFill=0;entryPerimeter=0;jumpStyle=arc;movable=0;resizable=0;rotatable=0;deletable=0;editable=0;locked=1;connectable=0;" edge="1" parent="1" source="u4t8vOh4ehWGzWZB7BTO-64" target="u4t8vOh4ehWGzWZB7BTO-78">
                    <mxGeometry relative="1" as="geometry">
                        <Array as="points">
                            <mxPoint x="710" y="513"/>
                            <mxPoint x="710" y="484"/>
                        </Array>
                    </mxGeometry>
                </mxCell>
                <mxCell id="u4t8vOh4ehWGzWZB7BTO-64" value="sourceE" style="rounded=1;whiteSpace=wrap;html=1;dashed=1;dashPattern=8 8;movable=0;resizable=0;rotatable=0;deletable=0;editable=0;locked=1;connectable=0;" vertex="1" parent="1">
                    <mxGeometry x="731" y="487" width="110" height="50" as="geometry"/>
                </mxCell>
                <mxCell id="u4t8vOh4ehWGzWZB7BTO-65" value="sourceA" style="rounded=1;whiteSpace=wrap;html=1;dashed=1;dashPattern=8 8;movable=0;resizable=0;rotatable=0;deletable=0;editable=0;locked=1;connectable=0;" vertex="1" parent="1">
                    <mxGeometry x="731" y="388" width="110" height="50" as="geometry"/>
                </mxCell>
                <mxCell id="u4t8vOh4ehWGzWZB7BTO-66" style="edgeStyle=elbowEdgeStyle;rounded=0;orthogonalLoop=1;jettySize=auto;html=1;entryX=0;entryY=0.6;entryDx=0;entryDy=0;entryPerimeter=0;fontSize=11;fontColor=#000000;startArrow=none;startFill=0;endArrow=classic;endFill=1;movable=0;resizable=0;rotatable=0;deletable=0;editable=0;locked=1;connectable=0;" edge="1" parent="1" source="u4t8vOh4ehWGzWZB7BTO-98" target="u4t8vOh4ehWGzWZB7BTO-28">
                    <mxGeometry relative="1" as="geometry">
                        <Array as="points">
                            <mxPoint x="200" y="669"/>
                        </Array>
                    </mxGeometry>
                </mxCell>
                <mxCell id="u4t8vOh4ehWGzWZB7BTO-67" value="sinkB" style="rounded=1;whiteSpace=wrap;html=1;dashed=1;dashPattern=8 8;movable=0;resizable=0;rotatable=0;deletable=0;editable=0;locked=1;connectable=0;" vertex="1" parent="1">
                    <mxGeometry x="731" y="820" width="110" height="50" as="geometry"/>
                </mxCell>
                <mxCell id="u4t8vOh4ehWGzWZB7BTO-68" value="sourceB" style="rounded=1;whiteSpace=wrap;html=1;dashed=1;dashPattern=8 8;movable=0;resizable=0;rotatable=0;deletable=0;editable=0;locked=1;connectable=0;" vertex="1" parent="1">
                    <mxGeometry x="61" y="415" width="110" height="50" as="geometry"/>
                </mxCell>
                <mxCell id="u4t8vOh4ehWGzWZB7BTO-69" value="&lt;div style=&quot;&quot;&gt;&lt;span style=&quot;background-color: initial;&quot;&gt;* rr = read resp&lt;/span&gt;&lt;/div&gt;**Acquire toT hits on Branch, read data ahead and wait for Grant toT&lt;br&gt;&lt;div style=&quot;&quot;&gt;&lt;span style=&quot;background-color: initial;&quot;&gt;- pb = put buffer&lt;/span&gt;&lt;/div&gt;&lt;div style=&quot;&quot;&gt;&amp;amp; block is given by 1)MainPipe; 2)MSHRCtl; 3)GrantBuf&lt;/div&gt;&lt;div style=&quot;&quot;&gt;@ used for ReleaseData&lt;/div&gt;&lt;div style=&quot;&quot;&gt;&lt;span style=&quot;background-color: initial;&quot;&gt;% id given by MSHRCtl, by comparing all mshr set &amp;amp; tag, used for ProbeAckData&lt;/span&gt;&lt;/div&gt;&lt;div style=&quot;&quot;&gt;&lt;span style=&quot;background-color: initial;&quot;&gt;$ &lt;font&gt;Complicated TODO&lt;/font&gt;&lt;/span&gt;&lt;/div&gt;&lt;div style=&quot;&quot;&gt;&lt;br&gt;&lt;/div&gt;&lt;div style=&quot;&quot;&gt;&lt;br&gt;&lt;/div&gt;" style="text;html=1;align=left;verticalAlign=middle;resizable=0;points=[];autosize=1;movable=0;rotatable=0;deletable=0;editable=0;locked=1;connectable=0;" vertex="1" parent="1">
                    <mxGeometry x="224" y="194" width="450" height="140" as="geometry"/>
                </mxCell>
                <mxCell id="u4t8vOh4ehWGzWZB7BTO-70" value="rr&lt;br style=&quot;border-color: var(--border-color);&quot;&gt;&lt;span style=&quot;&quot;&gt;s3&lt;/span&gt;" style="text;whiteSpace=wrap;html=1;fontSize=11;align=center;verticalAlign=top;horizontal=1;spacingTop=-7;spacingLeft=-17;labelBackgroundColor=default;movable=0;resizable=0;rotatable=0;deletable=0;editable=0;locked=1;connectable=0;" vertex="1" parent="1">
                    <mxGeometry x="538" y="725" width="80" height="27" as="geometry"/>
                </mxCell>
                <mxCell id="u4t8vOh4ehWGzWZB7BTO-71" style="edgeStyle=orthogonalEdgeStyle;rounded=0;orthogonalLoop=1;jettySize=auto;html=1;fontSize=11;startArrow=none;startFill=0;endArrow=classic;endFill=1;exitX=0.82;exitY=1;exitDx=0;exitDy=0;exitPerimeter=0;fontColor=#000000;movable=0;resizable=0;rotatable=0;deletable=0;editable=0;locked=1;connectable=0;" edge="1" parent="1">
                    <mxGeometry relative="1" as="geometry">
                        <mxPoint x="595.8000000000002" y="692" as="sourcePoint"/>
                        <mxPoint x="369" y="876" as="targetPoint"/>
                        <Array as="points">
                            <mxPoint x="599" y="692"/>
                            <mxPoint x="599" y="876"/>
                        </Array>
                    </mxGeometry>
                </mxCell>
                <mxCell id="u4t8vOh4ehWGzWZB7BTO-72" value="w1&lt;br style=&quot;border-color: var(--border-color);&quot;&gt;&lt;span style=&quot;border-color: var(--border-color);&quot;&gt;s5&lt;/span&gt;" style="edgeLabel;html=1;align=center;verticalAlign=middle;resizable=0;points=[];fontSize=11;fontColor=#000000;movable=0;rotatable=0;deletable=0;editable=0;locked=1;connectable=0;" vertex="1" connectable="0" parent="u4t8vOh4ehWGzWZB7BTO-71">
                    <mxGeometry x="-0.6599" relative="1" as="geometry">
                        <mxPoint x="-1" y="-22" as="offset"/>
                    </mxGeometry>
                </mxCell>
                <mxCell id="u4t8vOh4ehWGzWZB7BTO-73" style="edgeStyle=orthogonalEdgeStyle;rounded=0;orthogonalLoop=1;jettySize=auto;html=1;entryX=0.25;entryY=0;entryDx=0;entryDy=0;fontSize=11;startArrow=none;startFill=0;endArrow=classic;endFill=1;fontColor=#000000;movable=0;resizable=0;rotatable=0;deletable=0;editable=0;locked=1;connectable=0;" edge="1" parent="1" source="u4t8vOh4ehWGzWZB7BTO-74" target="u4t8vOh4ehWGzWZB7BTO-97">
                    <mxGeometry relative="1" as="geometry"/>
                </mxCell>
                <mxCell id="u4t8vOh4ehWGzWZB7BTO-74" value="w2&lt;sup&gt;$&lt;/sup&gt;&lt;br&gt;nested" style="text;whiteSpace=wrap;html=1;fontSize=11;align=center;verticalAlign=top;horizontal=1;spacingTop=-7;spacingLeft=0;movable=0;resizable=0;rotatable=0;deletable=0;editable=0;locked=1;connectable=0;" vertex="1" parent="1">
                    <mxGeometry x="224" y="773.5" width="50" height="27" as="geometry"/>
                </mxCell>
                <mxCell id="u4t8vOh4ehWGzWZB7BTO-75" value="" style="edgeStyle=elbowEdgeStyle;rounded=0;orthogonalLoop=1;jettySize=auto;html=1;exitX=0.5;exitY=1;exitDx=0;exitDy=0;exitPerimeter=0;fontSize=11;fontColor=#000000;startArrow=none;startFill=0;endArrow=none;endFill=1;movable=0;resizable=0;rotatable=0;deletable=0;editable=0;locked=1;connectable=0;" edge="1" parent="1" source="u4t8vOh4ehWGzWZB7BTO-81" target="u4t8vOh4ehWGzWZB7BTO-78">
                    <mxGeometry relative="1" as="geometry">
                        <Array as="points"/>
                        <mxPoint x="608" y="313" as="sourcePoint"/>
                        <mxPoint x="563" y="633" as="targetPoint"/>
                    </mxGeometry>
                </mxCell>
                <mxCell id="u4t8vOh4ehWGzWZB7BTO-76" style="edgeStyle=elbowEdgeStyle;rounded=0;orthogonalLoop=1;jettySize=auto;elbow=vertical;html=1;entryX=1;entryY=0.45;entryDx=0;entryDy=0;entryPerimeter=0;labelBackgroundColor=default;fontSize=11;fontColor=#FFD966;startArrow=none;startFill=0;endArrow=classic;endFill=1;dashed=1;movable=0;resizable=0;rotatable=0;deletable=0;editable=0;locked=1;connectable=0;" edge="1" parent="1" source="u4t8vOh4ehWGzWZB7BTO-78" target="u4t8vOh4ehWGzWZB7BTO-9">
                    <mxGeometry relative="1" as="geometry"/>
                </mxCell>
                <mxCell id="u4t8vOh4ehWGzWZB7BTO-77" value="d&lt;br&gt;resp" style="edgeLabel;html=1;align=center;verticalAlign=middle;resizable=0;points=[];fontSize=11;fontColor=#FFD966;movable=0;rotatable=0;deletable=0;editable=0;locked=1;connectable=0;" vertex="1" connectable="0" parent="u4t8vOh4ehWGzWZB7BTO-76">
                    <mxGeometry x="0.0601" y="1" relative="1" as="geometry">
                        <mxPoint x="4" as="offset"/>
                    </mxGeometry>
                </mxCell>
                <mxCell id="u4t8vOh4ehWGzWZB7BTO-78" value="Refill Unit" style="rounded=0;whiteSpace=wrap;html=1;points=[[0,0,0,0,0],[0,0.25,0,0,0],[0,0.5,0,0,0],[0,0.75,0,0,0],[0,1,0,0,0],[0.24,1,0,0,0],[0.26,0,0,0,0],[0.5,0,0,0,0],[0.5,1,0,0,0],[0.74,1,0,0,0],[0.76,0,0,0,0],[1,0,0,0,0],[1,0.09,0,0,0],[1,0.18,0,0,0],[1,0.25,0,0,0],[1,0.27,0,0,0],[1,0.36,0,0,0],[1,0.45,0,0,0],[1,0.5,0,0,0],[1,0.55,0,0,0],[1,0.64,0,0,0],[1,0.73,0,0,0],[1,0.75,0,0,0],[1,0.82,0,0,0],[1,0.91,0,0,0],[1,1,0,0,0]];movable=0;resizable=0;rotatable=0;deletable=0;editable=0;locked=1;connectable=0;" vertex="1" parent="1">
                    <mxGeometry x="503" y="452" width="160" height="50" as="geometry"/>
                </mxCell>
                <mxCell id="u4t8vOh4ehWGzWZB7BTO-79" value="" style="edgeStyle=elbowEdgeStyle;rounded=0;orthogonalLoop=1;jettySize=auto;html=1;exitX=0.5;exitY=1;exitDx=0;exitDy=0;exitPerimeter=0;fontSize=11;fontColor=#000000;startArrow=none;startFill=0;endArrow=none;endFill=1;movable=0;resizable=0;rotatable=0;deletable=0;editable=0;locked=1;connectable=0;" edge="1" parent="1" source="u4t8vOh4ehWGzWZB7BTO-78" target="u4t8vOh4ehWGzWZB7BTO-81">
                    <mxGeometry relative="1" as="geometry">
                        <Array as="points"/>
                        <mxPoint x="612.0000000000005" y="510" as="sourcePoint"/>
                        <mxPoint x="563" y="633" as="targetPoint"/>
                    </mxGeometry>
                </mxCell>
                <mxCell id="u4t8vOh4ehWGzWZB7BTO-80" value="w0" style="edgeLabel;html=1;align=center;verticalAlign=middle;resizable=0;points=[];fontSize=11;fontColor=#000000;labelBackgroundColor=default;movable=0;rotatable=0;deletable=0;editable=0;locked=1;connectable=0;" vertex="1" connectable="0" parent="u4t8vOh4ehWGzWZB7BTO-79">
                    <mxGeometry x="-0.3905" relative="1" as="geometry">
                        <mxPoint y="2" as="offset"/>
                    </mxGeometry>
                </mxCell>
                <mxCell id="u4t8vOh4ehWGzWZB7BTO-81" value="Refill Buf" style="rounded=0;whiteSpace=wrap;html=1;points=[[0,0,0,0,0],[0,0.25,0,0,0],[0,0.5,0,0,0],[0,0.75,0,0,0],[0,1,0,0,0],[0.06,1,0,0,0],[0.13,1,0,0,0],[0.19,1,0,0,0],[0.25,0,0,0,0],[0.25,1,0,0,0],[0.31,1,0,0,0],[0.38,1,0,0,0],[0.44,1,0,0,0],[0.5,0,0,0,0],[0.5,1,0,0,0],[0.56,1,0,0,0],[0.63,1,0,0,0],[0.69,1,0,0,0],[0.75,0,0,0,0],[0.75,1,0,0,0],[0.81,1,0,0,0],[0.88,1,0,0,0],[0.94,1,0,0,0],[1,0,0,0,0],[1,0.25,0,0,0],[1,0.5,0,0,0],[1,0.75,0,0,0],[1,1,0,0,0]];movable=0;resizable=0;rotatable=0;deletable=0;editable=0;locked=1;connectable=0;" vertex="1" parent="1">
                    <mxGeometry x="503" y="528" width="160" height="60" as="geometry"/>
                </mxCell>
                <mxCell id="u4t8vOh4ehWGzWZB7BTO-82" style="edgeStyle=orthogonalEdgeStyle;rounded=0;orthogonalLoop=1;jettySize=auto;html=1;entryX=1;entryY=0.5;entryDx=0;entryDy=0;fontSize=11;fontColor=#000000;startArrow=none;startFill=0;endArrow=classic;endFill=1;movable=0;resizable=0;rotatable=0;deletable=0;editable=0;locked=1;connectable=0;" edge="1" parent="1" source="u4t8vOh4ehWGzWZB7BTO-11" target="u4t8vOh4ehWGzWZB7BTO-68">
                    <mxGeometry relative="1" as="geometry">
                        <Array as="points">
                            <mxPoint x="210" y="413"/>
                            <mxPoint x="210" y="440"/>
                        </Array>
                    </mxGeometry>
                </mxCell>
                <mxCell id="u4t8vOh4ehWGzWZB7BTO-83" value="sinkE" style="rounded=1;whiteSpace=wrap;html=1;dashed=1;dashPattern=8 8;movable=0;resizable=0;rotatable=0;deletable=0;editable=0;locked=1;connectable=0;" vertex="1" parent="1">
                    <mxGeometry x="61" y="274" width="110" height="50" as="geometry"/>
                </mxCell>
                <mxCell id="u4t8vOh4ehWGzWZB7BTO-84" value="sourceD" style="rounded=1;whiteSpace=wrap;html=1;dashed=1;dashPattern=8 8;movable=0;resizable=0;rotatable=0;deletable=0;editable=0;locked=1;connectable=0;" vertex="1" parent="1">
                    <mxGeometry x="61" y="344" width="110" height="50" as="geometry"/>
                </mxCell>
                <mxCell id="u4t8vOh4ehWGzWZB7BTO-85" value="sourceB" style="rounded=1;whiteSpace=wrap;html=1;dashed=1;dashPattern=8 8;movable=0;resizable=0;rotatable=0;deletable=0;editable=0;locked=1;connectable=0;" vertex="1" parent="1">
                    <mxGeometry x="61" y="415" width="110" height="50" as="geometry"/>
                </mxCell>
                <mxCell id="u4t8vOh4ehWGzWZB7BTO-86" value="sinkA" style="rounded=0;whiteSpace=wrap;html=1;movable=0;resizable=0;rotatable=0;deletable=0;editable=0;locked=1;connectable=0;" vertex="1" parent="1">
                    <mxGeometry x="61" y="510" width="110" height="50" as="geometry"/>
                </mxCell>
                <mxCell id="u4t8vOh4ehWGzWZB7BTO-87" value="block&lt;sup style=&quot;font-size: 10px;&quot;&gt;&amp;amp;&amp;nbsp;&amp;nbsp;&lt;/sup&gt;" style="text;html=1;align=center;verticalAlign=middle;resizable=0;points=[];autosize=1;fontSize=10;movable=0;rotatable=0;deletable=0;editable=0;locked=1;connectable=0;" vertex="1" parent="1">
                    <mxGeometry x="259" y="594" width="60" height="30" as="geometry"/>
                </mxCell>
                <mxCell id="u4t8vOh4ehWGzWZB7BTO-88" value="" style="endArrow=classic;html=1;rounded=0;entryX=0.25;entryY=0;entryDx=0;entryDy=0;entryPerimeter=0;exitX=0.4;exitY=0.767;exitDx=0;exitDy=0;exitPerimeter=0;movable=0;resizable=0;rotatable=0;deletable=0;editable=0;locked=1;connectable=0;" edge="1" parent="1" source="u4t8vOh4ehWGzWZB7BTO-87" target="u4t8vOh4ehWGzWZB7BTO-28">
                    <mxGeometry width="50" height="50" relative="1" as="geometry">
                        <mxPoint x="300" y="633" as="sourcePoint"/>
                        <mxPoint x="290" y="630" as="targetPoint"/>
                    </mxGeometry>
                </mxCell>
                <mxCell id="u4t8vOh4ehWGzWZB7BTO-89" style="edgeStyle=none;html=1;exitX=1;exitY=0.33;exitDx=0;exitDy=0;exitPerimeter=0;movable=0;resizable=0;rotatable=0;deletable=0;editable=0;locked=1;connectable=0;" edge="1" parent="1" source="u4t8vOh4ehWGzWZB7BTO-90">
                    <mxGeometry relative="1" as="geometry">
                        <mxPoint x="690" y="720" as="targetPoint"/>
                        <Array as="points">
                            <mxPoint x="690" y="653"/>
                        </Array>
                    </mxGeometry>
                </mxCell>
                <mxCell id="u4t8vOh4ehWGzWZB7BTO-90" value="MainPipe" style="rounded=0;whiteSpace=wrap;html=1;glass=0;shadow=0;points=[[0,0,0,0,0],[0,0.25,0,0,0],[0,0.5,0,0,0],[0,0.75,0,0,0],[0,1,0,0,0],[0.09,0,0,0,0],[0.09,1,0,0,0],[0.18,0,0,0,0],[0.18,1,0,0,0],[0.27,0,0,0,0],[0.27,1,0,0,0],[0.36,0,0,0,0],[0.36,1,0,0,0],[0.45,0,0,0,0],[0.45,1,0,0,0],[0.55,0,0,0,0],[0.55,1,0,0,0],[0.64,0,0,0,0],[0.64,1,0,0,0],[0.73,0,0,0,0],[0.73,1,0,0,0],[0.82,0,0,0,0],[0.82,1,0,0,0],[0.91,0,0,0,0],[0.91,1,0,0,0],[1,0,0,0,0],[1,0.25,0,0,0],[1,0.33,0,0,0],[1,0.5,0,0,0],[1,0.67,0,0,0],[1,0.75,0,0,0],[1,1,0,0,0]];movable=0;resizable=0;rotatable=0;deletable=0;editable=0;locked=1;connectable=0;" vertex="1" parent="1">
                    <mxGeometry x="373" y="633" width="290" height="60" as="geometry"/>
                </mxCell>
                <mxCell id="u4t8vOh4ehWGzWZB7BTO-91" style="rounded=0;orthogonalLoop=1;jettySize=auto;html=1;exitX=0.33;exitY=1;exitDx=0;exitDy=0;exitPerimeter=0;fontSize=11;fontColor=#000000;startArrow=none;startFill=0;endArrow=classic;endFill=1;entryX=0.5;entryY=0;entryDx=0;entryDy=0;movable=0;resizable=0;rotatable=0;deletable=0;editable=0;locked=1;connectable=0;" edge="1" parent="1">
                    <mxGeometry relative="1" as="geometry">
                        <mxPoint x="299.4000000000001" y="694" as="sourcePoint"/>
                        <mxPoint x="299" y="903" as="targetPoint"/>
                    </mxGeometry>
                </mxCell>
                <mxCell id="u4t8vOh4ehWGzWZB7BTO-92" style="edgeStyle=elbowEdgeStyle;rounded=0;orthogonalLoop=1;jettySize=auto;html=1;exitX=1;exitY=0.5;exitDx=0;exitDy=0;entryX=0.91;entryY=1;entryDx=0;entryDy=0;entryPerimeter=0;strokeWidth=1;fontColor=#000000;startArrow=none;startFill=0;endArrow=classic;endFill=1;startSize=6;endSize=6;movable=0;resizable=0;rotatable=0;deletable=0;editable=0;locked=1;connectable=0;" edge="1" parent="1" source="u4t8vOh4ehWGzWZB7BTO-94">
                    <mxGeometry relative="1" as="geometry">
                        <mxPoint x="364" y="933" as="sourcePoint"/>
                        <mxPoint x="631.9000000000001" y="693" as="targetPoint"/>
                        <Array as="points">
                            <mxPoint x="632" y="800"/>
                        </Array>
                    </mxGeometry>
                </mxCell>
                <mxCell id="u4t8vOh4ehWGzWZB7BTO-93" value="rr&lt;br&gt;s3" style="edgeLabel;html=1;align=center;verticalAlign=middle;resizable=0;points=[];fontColor=#000000;movable=0;rotatable=0;deletable=0;editable=0;locked=1;connectable=0;" vertex="1" connectable="0" parent="u4t8vOh4ehWGzWZB7BTO-92">
                    <mxGeometry x="0.8343" y="2" relative="1" as="geometry">
                        <mxPoint x="1" y="2" as="offset"/>
                    </mxGeometry>
                </mxCell>
                <mxCell id="u4t8vOh4ehWGzWZB7BTO-94" value="data Buf" style="rounded=0;whiteSpace=wrap;html=1;movable=0;resizable=0;rotatable=0;deletable=0;editable=0;locked=1;connectable=0;" vertex="1" parent="1">
                    <mxGeometry x="209" y="903" width="160" height="47" as="geometry"/>
                </mxCell>
                <mxCell id="u4t8vOh4ehWGzWZB7BTO-95" value="" style="rounded=0;whiteSpace=wrap;html=1;shadow=0;glass=0;labelBackgroundColor=#FFFFFF;sketch=0;movable=0;resizable=0;rotatable=0;deletable=0;editable=0;locked=1;connectable=0;" vertex="1" parent="1">
                    <mxGeometry x="283.5" y="721.5" width="21" height="28.5" as="geometry"/>
                </mxCell>
                <mxCell id="u4t8vOh4ehWGzWZB7BTO-96" value="&amp;nbsp; r&amp;nbsp;&amp;nbsp;&lt;br style=&quot;border-color: var(--border-color); font-size: 11px; background-color: rgb(255, 255, 255);&quot;&gt;&lt;span style=&quot;font-size: 11px; background-color: rgb(255, 255, 255);&quot;&gt;s2&lt;/span&gt;" style="text;html=1;align=center;verticalAlign=middle;resizable=0;points=[];autosize=1;movable=0;rotatable=0;deletable=0;editable=0;locked=1;connectable=0;" vertex="1" parent="1">
                    <mxGeometry x="274" y="714.75" width="40" height="40" as="geometry"/>
                </mxCell>
                <mxCell id="u4t8vOh4ehWGzWZB7BTO-97" value="Release Buf" style="rounded=0;whiteSpace=wrap;html=1;movable=0;resizable=0;rotatable=0;deletable=0;editable=0;locked=1;connectable=0;" vertex="1" parent="1">
                    <mxGeometry x="209" y="832" width="160" height="60" as="geometry"/>
                </mxCell>
                <mxCell id="u4t8vOh4ehWGzWZB7BTO-98" value="sinkB" style="rounded=1;whiteSpace=wrap;html=1;dashed=1;dashPattern=8 8;movable=0;resizable=0;rotatable=0;deletable=0;editable=0;locked=1;connectable=0;" vertex="1" parent="1">
                    <mxGeometry x="61" y="643" width="110" height="50" as="geometry"/>
                </mxCell>
                <mxCell id="u4t8vOh4ehWGzWZB7BTO-99" value="" style="endArrow=classic;html=1;dashed=1;dashPattern=1 1;fontSize=9;curved=1;entryX=1;entryY=0.5;entryDx=0;entryDy=0;movable=0;resizable=0;rotatable=0;deletable=0;editable=0;locked=1;connectable=0;" edge="1" parent="1" target="u4t8vOh4ehWGzWZB7BTO-101">
                    <mxGeometry width="50" height="50" relative="1" as="geometry">
                        <mxPoint x="60" y="370" as="sourcePoint"/>
                        <mxPoint x="-220" y="370" as="targetPoint"/>
                    </mxGeometry>
                </mxCell>
                <mxCell id="u4t8vOh4ehWGzWZB7BTO-100" value="Ack" style="edgeLabel;html=1;align=center;verticalAlign=middle;resizable=0;points=[];fontSize=9;movable=0;rotatable=0;deletable=0;editable=0;locked=1;connectable=0;" vertex="1" connectable="0" parent="u4t8vOh4ehWGzWZB7BTO-99">
                    <mxGeometry x="-0.0604" y="1" relative="1" as="geometry">
                        <mxPoint as="offset"/>
                    </mxGeometry>
                </mxCell>
                <mxCell id="u4t8vOh4ehWGzWZB7BTO-101" value="Channel&lt;div&gt;D&lt;/div&gt;" style="ellipse;whiteSpace=wrap;html=1;fontSize=9;fontStyle=1;movable=0;resizable=0;rotatable=0;deletable=0;editable=0;locked=1;connectable=0;" vertex="1" parent="1">
                    <mxGeometry x="-270" y="346" width="40" height="46" as="geometry"/>
                </mxCell>
                <mxCell id="u4t8vOh4ehWGzWZB7BTO-102" style="edgeStyle=none;curved=1;html=1;exitX=1;exitY=0.5;exitDx=0;exitDy=0;fontSize=9;entryX=0.06;entryY=1.091;entryDx=0;entryDy=0;entryPerimeter=0;movable=0;resizable=0;rotatable=0;deletable=0;editable=0;locked=1;connectable=0;" edge="1" parent="1" source="u4t8vOh4ehWGzWZB7BTO-103">
                    <mxGeometry relative="1" as="geometry">
                        <mxPoint x="-123.63999999999987" y="615.3599999999999" as="targetPoint"/>
                    </mxGeometry>
                </mxCell>
                <mxCell id="u4t8vOh4ehWGzWZB7BTO-103" value="Channel&lt;div&gt;A&lt;/div&gt;" style="ellipse;whiteSpace=wrap;html=1;fontSize=9;fontStyle=1;movable=0;resizable=0;rotatable=0;deletable=0;editable=0;locked=1;connectable=0;" vertex="1" parent="1">
                    <mxGeometry x="-270" y="592" width="40" height="46" as="geometry"/>
                </mxCell>
                <mxCell id="u4t8vOh4ehWGzWZB7BTO-104" style="edgeStyle=none;html=1;entryX=1;entryY=0.5;entryDx=0;entryDy=0;movable=0;resizable=0;rotatable=0;deletable=0;editable=0;locked=1;connectable=0;" edge="1" parent="1" target="u4t8vOh4ehWGzWZB7BTO-108">
                    <mxGeometry relative="1" as="geometry">
                        <mxPoint x="-320" y="980" as="targetPoint"/>
                        <mxPoint x="690" y="760" as="sourcePoint"/>
                        <Array as="points">
                            <mxPoint x="690" y="973"/>
                        </Array>
                    </mxGeometry>
                </mxCell>
                <mxCell id="u4t8vOh4ehWGzWZB7BTO-105" value="sourceMD" style="rounded=1;whiteSpace=wrap;html=1;dashed=1;dashPattern=8 8;movable=0;resizable=0;rotatable=0;deletable=0;editable=0;locked=1;connectable=0;" vertex="1" parent="1">
                    <mxGeometry x="650" y="721.5" width="110" height="50" as="geometry"/>
                </mxCell>
                <mxCell id="u4t8vOh4ehWGzWZB7BTO-106" style="edgeStyle=none;html=1;exitX=1;exitY=0.5;exitDx=0;exitDy=0;entryX=0.849;entryY=1.091;entryDx=0;entryDy=0;entryPerimeter=0;movable=0;resizable=0;rotatable=0;deletable=0;editable=0;locked=1;connectable=0;" edge="1" parent="1" source="u4t8vOh4ehWGzWZB7BTO-107">
                    <mxGeometry relative="1" as="geometry">
                        <mxPoint x="-123.63999999999987" y="738.444" as="targetPoint"/>
                    </mxGeometry>
                </mxCell>
                <mxCell id="u4t8vOh4ehWGzWZB7BTO-107" value="Channel&lt;div&gt;C&lt;/div&gt;" style="ellipse;whiteSpace=wrap;html=1;fontSize=9;fontStyle=1;movable=0;resizable=0;rotatable=0;deletable=0;editable=0;locked=1;connectable=0;" vertex="1" parent="1">
                    <mxGeometry x="-270" y="716" width="40" height="46" as="geometry"/>
                </mxCell>
                <mxCell id="u4t8vOh4ehWGzWZB7BTO-108" value="Channel&lt;div&gt;M&lt;/div&gt;" style="ellipse;whiteSpace=wrap;html=1;fontSize=9;fontStyle=1;movable=0;resizable=0;rotatable=0;deletable=0;editable=0;locked=1;connectable=0;" vertex="1" parent="1">
                    <mxGeometry x="-270" y="950" width="40" height="46" as="geometry"/>
                </mxCell>
                <mxCell id="u4t8vOh4ehWGzWZB7BTO-109" value="Channel&lt;div&gt;B&lt;/div&gt;" style="ellipse;whiteSpace=wrap;html=1;fontSize=9;fontStyle=1;movable=0;resizable=0;rotatable=0;deletable=0;editable=0;locked=1;connectable=0;" vertex="1" parent="1">
                    <mxGeometry x="910" y="822" width="40" height="46" as="geometry"/>
                </mxCell>
                <mxCell id="u4t8vOh4ehWGzWZB7BTO-110" value="Channel&lt;div&gt;C&lt;/div&gt;" style="ellipse;whiteSpace=wrap;html=1;fontSize=9;fontStyle=1;movable=0;resizable=0;rotatable=0;deletable=0;editable=0;locked=1;connectable=0;" vertex="1" parent="1">
                    <mxGeometry x="910" y="648" width="40" height="46" as="geometry"/>
                </mxCell>
                <mxCell id="u4t8vOh4ehWGzWZB7BTO-111" value="Channel&lt;div&gt;E&lt;/div&gt;" style="ellipse;whiteSpace=wrap;html=1;fontSize=9;fontStyle=1;movable=0;resizable=0;rotatable=0;deletable=0;editable=0;locked=1;connectable=0;" vertex="1" parent="1">
                    <mxGeometry x="910" y="491" width="40" height="46" as="geometry"/>
                </mxCell>
                <mxCell id="u4t8vOh4ehWGzWZB7BTO-112" value="" style="endArrow=classic;html=1;movable=0;resizable=0;rotatable=0;deletable=0;editable=0;locked=1;connectable=0;" edge="1" parent="1">
                    <mxGeometry width="50" height="50" relative="1" as="geometry">
                        <mxPoint x="841" y="513.5" as="sourcePoint"/>
                        <mxPoint x="910" y="514" as="targetPoint"/>
                    </mxGeometry>
                </mxCell>
                <mxCell id="u4t8vOh4ehWGzWZB7BTO-113" value="" style="endArrow=classic;html=1;movable=0;resizable=0;rotatable=0;deletable=0;editable=0;locked=1;connectable=0;" edge="1" parent="1">
                    <mxGeometry width="50" height="50" relative="1" as="geometry">
                        <mxPoint x="841" y="672.5" as="sourcePoint"/>
                        <mxPoint x="910" y="673" as="targetPoint"/>
                    </mxGeometry>
                </mxCell>
                <mxCell id="u4t8vOh4ehWGzWZB7BTO-114" value="" style="endArrow=classic;html=1;movable=0;resizable=0;rotatable=0;deletable=0;editable=0;locked=1;connectable=0;" edge="1" parent="1">
                    <mxGeometry width="50" height="50" relative="1" as="geometry">
                        <mxPoint x="841" y="844.5" as="sourcePoint"/>
                        <mxPoint x="910" y="845" as="targetPoint"/>
                    </mxGeometry>
                </mxCell>
                <mxCell id="u4t8vOh4ehWGzWZB7BTO-115" style="edgeStyle=none;html=1;exitX=0.25;exitY=0;exitDx=0;exitDy=0;movable=0;resizable=0;rotatable=0;deletable=0;editable=0;locked=1;connectable=0;" edge="1" parent="1" source="u4t8vOh4ehWGzWZB7BTO-117">
                    <mxGeometry relative="1" as="geometry">
                        <mxPoint x="60" y="540" as="targetPoint"/>
                        <Array as="points">
                            <mxPoint y="636"/>
                        </Array>
                    </mxGeometry>
                </mxCell>
                <mxCell id="u4t8vOh4ehWGzWZB7BTO-116" style="edgeStyle=none;html=1;exitX=0.75;exitY=0;exitDx=0;exitDy=0;movable=0;resizable=0;rotatable=0;deletable=0;editable=0;locked=1;connectable=0;" edge="1" parent="1" source="u4t8vOh4ehWGzWZB7BTO-117">
                    <mxGeometry relative="1" as="geometry">
                        <mxPoint x="60" y="740" as="targetPoint"/>
                        <Array as="points">
                            <mxPoint x="-10" y="720"/>
                        </Array>
                    </mxGeometry>
                </mxCell>
                <mxCell id="u4t8vOh4ehWGzWZB7BTO-117" value="&lt;p style=&quot;line-height: 100%;&quot;&gt;&lt;font style=&quot;color: rgb(0, 0, 0);&quot;&gt;sinkMA&lt;/font&gt;&lt;/p&gt;" style="shape=trapezoid;perimeter=trapezoidPerimeter;whiteSpace=wrap;html=1;fixedSize=1;fontSize=12;direction=south;movable=1;resizable=1;rotatable=1;deletable=1;editable=1;locked=0;connectable=1;" vertex="1" parent="1">
                    <mxGeometry x="-120" y="594" width="40" height="166" as="geometry"/>
                </mxCell>
                <mxCell id="u4t8vOh4ehWGzWZB7BTO-118" value="MU Put" style="text;html=1;align=center;verticalAlign=middle;resizable=0;points=[];autosize=1;strokeColor=none;fillColor=none;fontStyle=1;fontSize=15;" vertex="1" parent="1">
                    <mxGeometry x="-385" y="627" width="70" height="30" as="geometry"/>
                </mxCell>
                <mxCell id="u4t8vOh4ehWGzWZB7BTO-119" value="" style="endArrow=none;html=1;strokeWidth=7;strokeColor=#FF0000;" edge="1" parent="1">
                    <mxGeometry width="50" height="50" relative="1" as="geometry">
                        <mxPoint x="-315" y="647" as="sourcePoint"/>
                        <mxPoint x="-220" y="370" as="targetPoint"/>
                        <Array as="points">
                            <mxPoint x="-105" y="647"/>
                            <mxPoint x="-105" y="720"/>
                            <mxPoint x="-70" y="717"/>
                            <mxPoint x="-10" y="717"/>
                            <mxPoint x="80" y="740"/>
                            <mxPoint x="200" y="740"/>
                            <mxPoint x="200" y="680"/>
                            <mxPoint x="680" y="680"/>
                            <mxPoint x="680" y="760"/>
                            <mxPoint x="710" y="760"/>
                            <mxPoint x="710" y="370"/>
                            <mxPoint x="610" y="370"/>
                        </Array>
                    </mxGeometry>
                </mxCell>
                <mxCell id="u4t8vOh4ehWGzWZB7BTO-120" value="" style="endArrow=classic;html=1;strokeWidth=6;strokeColor=#FF0000;" edge="1" parent="1">
                    <mxGeometry width="50" height="50" relative="1" as="geometry">
                        <mxPoint x="330" y="680" as="sourcePoint"/>
                        <mxPoint x="360" y="780" as="targetPoint"/>
                        <Array as="points">
                            <mxPoint x="330" y="780"/>
                        </Array>
                    </mxGeometry>
                </mxCell>
                <mxCell id="u4t8vOh4ehWGzWZB7BTO-121" value="" style="endArrow=classic;html=1;strokeWidth=6;strokeColor=#FF0000;" edge="1" parent="1">
                    <mxGeometry width="50" height="50" relative="1" as="geometry">
                        <mxPoint x="503" y="691.5" as="sourcePoint"/>
                        <mxPoint x="503" y="771.5" as="targetPoint"/>
                    </mxGeometry>
                </mxCell>
                <mxCell id="u4t8vOh4ehWGzWZB7BTO-122" value="" style="endArrow=classic;html=1;strokeWidth=6;strokeColor=#FF0000;" edge="1" parent="1">
                    <mxGeometry width="50" height="50" relative="1" as="geometry">
                        <mxPoint x="404" y="781.75" as="sourcePoint"/>
                        <mxPoint x="434" y="689.75" as="targetPoint"/>
                        <Array as="points">
                            <mxPoint x="434" y="781.25"/>
                        </Array>
                    </mxGeometry>
                </mxCell>
                <mxCell id="u4t8vOh4ehWGzWZB7BTO-123" value="" style="endArrow=classic;html=1;strokeWidth=6;strokeColor=#FF0000;" edge="1" parent="1">
                    <mxGeometry width="50" height="50" relative="1" as="geometry">
                        <mxPoint x="530" y="760" as="sourcePoint"/>
                        <mxPoint x="530" y="670" as="targetPoint"/>
                    </mxGeometry>
                </mxCell>
                <mxCell id="u4t8vOh4ehWGzWZB7BTO-124" value="" style="endArrow=classic;html=1;strokeWidth=6;strokeColor=#FF0000;" edge="1" parent="1">
                    <mxGeometry width="50" height="50" relative="1" as="geometry">
                        <mxPoint x="140" y="740" as="sourcePoint"/>
                        <mxPoint x="210" y="860" as="targetPoint"/>
                        <Array as="points">
                            <mxPoint x="140" y="860"/>
                        </Array>
                    </mxGeometry>
                </mxCell>
                <mxCell id="u4t8vOh4ehWGzWZB7BTO-125" value="" style="endArrow=classic;html=1;strokeWidth=6;strokeColor=#FF0000;" edge="1" parent="1">
                    <mxGeometry width="50" height="50" relative="1" as="geometry">
                        <mxPoint x="81" y="752" as="sourcePoint"/>
                        <mxPoint x="210" y="930" as="targetPoint"/>
                        <Array as="points">
                            <mxPoint x="81" y="930"/>
                        </Array>
                    </mxGeometry>
                </mxCell>
                <mxCell id="u4t8vOh4ehWGzWZB7BTO-126" value="" style="endArrow=classic;html=1;strokeWidth=6;strokeColor=#FF0000;" edge="1" parent="1">
                    <mxGeometry width="50" height="50" relative="1" as="geometry">
                        <mxPoint x="284" y="680" as="sourcePoint"/>
                        <mxPoint x="284" y="830" as="targetPoint"/>
                        <Array as="points">
                            <mxPoint x="284" y="780"/>
                        </Array>
                    </mxGeometry>
                </mxCell>
                <mxCell id="u4t8vOh4ehWGzWZB7BTO-127" value="" style="endArrow=classic;html=1;strokeWidth=6;strokeColor=#FF0000;" edge="1" parent="1">
                    <mxGeometry width="50" height="50" relative="1" as="geometry">
                        <mxPoint x="370" y="930" as="sourcePoint"/>
                        <mxPoint x="630" y="700" as="targetPoint"/>
                        <Array as="points">
                            <mxPoint x="630" y="930"/>
                        </Array>
                    </mxGeometry>
                </mxCell>
                <mxCell id="u4t8vOh4ehWGzWZB7BTO-128" value="" style="endArrow=classic;html=1;strokeWidth=6;strokeColor=#FF0000;" edge="1" parent="1">
                    <mxGeometry width="50" height="50" relative="1" as="geometry">
                        <mxPoint x="370" y="850" as="sourcePoint"/>
                        <mxPoint x="580" y="680" as="targetPoint"/>
                        <Array as="points">
                            <mxPoint x="579" y="853.5"/>
                        </Array>
                    </mxGeometry>
                </mxCell>
            </root>
        </mxGraphModel>
    </diagram>
    <diagram id="MtFM1tEMPaEy_Xpseggw" name="Page-1">
        <mxGraphModel dx="2571" dy="1216" grid="1" gridSize="10" guides="1" tooltips="1" connect="1" arrows="1" fold="1" page="1" pageScale="1" pageWidth="1200" pageHeight="1920" math="0" shadow="0">
            <root>
                <mxCell id="0"/>
                <mxCell id="1" parent="0"/>
                <mxCell id="2" style="edgeStyle=orthogonalEdgeStyle;rounded=0;orthogonalLoop=1;jettySize=auto;html=1;exitX=0.75;exitY=0;exitDx=0;exitDy=0;exitPerimeter=0;entryX=0.31;entryY=1;entryDx=0;entryDy=0;entryPerimeter=0;labelBackgroundColor=default;fontSize=11;fontColor=#000000;startArrow=none;startFill=0;endArrow=classic;endFill=1;jumpStyle=arc;movable=0;resizable=0;rotatable=0;deletable=0;editable=0;locked=1;connectable=0;" edge="1" parent="1" source="29" target="82">
                    <mxGeometry relative="1" as="geometry">
                        <Array as="points">
                            <mxPoint x="323" y="610"/>
                            <mxPoint x="553" y="610"/>
                        </Array>
                    </mxGeometry>
                </mxCell>
                <mxCell id="3" value="r&lt;br&gt;s2" style="edgeLabel;html=1;align=center;verticalAlign=middle;resizable=0;points=[];fontSize=11;fontColor=#000000;movable=0;rotatable=0;deletable=0;editable=0;locked=1;connectable=0;" vertex="1" connectable="0" parent="2">
                    <mxGeometry x="0.343" y="1" relative="1" as="geometry">
                        <mxPoint as="offset"/>
                    </mxGeometry>
                </mxCell>
                <mxCell id="4" style="rounded=0;orthogonalLoop=1;jettySize=auto;html=1;exitX=1;exitY=0.5;exitDx=0;exitDy=0;entryX=0;entryY=0.5;entryDx=0;entryDy=0;fontSize=11;fontColor=#000000;startArrow=none;startFill=0;endArrow=classic;endFill=1;elbow=vertical;jumpStyle=arc;movable=0;resizable=0;rotatable=0;deletable=0;editable=0;locked=1;connectable=0;" edge="1" parent="1" source="13" target="66">
                    <mxGeometry relative="1" as="geometry">
                        <mxPoint x="483" y="432.52380952380963" as="sourcePoint"/>
                    </mxGeometry>
                </mxCell>
                <mxCell id="5" style="edgeStyle=orthogonalEdgeStyle;rounded=0;orthogonalLoop=1;jettySize=auto;html=1;exitX=1;exitY=0.5;exitDx=0;exitDy=0;entryX=0.308;entryY=1;entryDx=0;entryDy=0;entryPerimeter=0;startArrow=classic;startFill=1;endArrow=none;endFill=0;fontColor=#000000;movable=0;resizable=0;rotatable=0;deletable=0;editable=0;locked=1;connectable=0;" edge="1" parent="1">
                    <mxGeometry relative="1" as="geometry">
                        <Array as="points">
                            <mxPoint x="438" y="787"/>
                        </Array>
                        <mxPoint x="389" y="787" as="sourcePoint"/>
                        <mxPoint x="447.32000000000016" y="693" as="targetPoint"/>
                    </mxGeometry>
                </mxCell>
                <mxCell id="6" value="w&lt;br&gt;s3" style="edgeLabel;html=1;align=center;verticalAlign=middle;resizable=0;points=[];fontSize=11;fontColor=#000000;movable=0;rotatable=0;deletable=0;editable=0;locked=1;connectable=0;" vertex="1" connectable="0" parent="5">
                    <mxGeometry x="0.3955" y="1" relative="1" as="geometry">
                        <mxPoint y="8" as="offset"/>
                    </mxGeometry>
                </mxCell>
                <mxCell id="7" style="edgeStyle=elbowEdgeStyle;orthogonalLoop=1;jettySize=auto;html=1;entryX=0;entryY=0.2;entryDx=0;entryDy=0;entryPerimeter=0;fontSize=11;fontColor=#000000;startArrow=none;startFill=0;endArrow=classic;endFill=1;rounded=0;movable=0;resizable=0;rotatable=0;deletable=0;editable=0;locked=1;connectable=0;" edge="1" parent="1" source="10" target="29">
                    <mxGeometry relative="1" as="geometry">
                        <Array as="points">
                            <mxPoint x="213" y="590"/>
                            <mxPoint x="193" y="620"/>
                            <mxPoint x="203" y="620"/>
                            <mxPoint x="193" y="600"/>
                        </Array>
                    </mxGeometry>
                </mxCell>
                <mxCell id="8" value="" style="group;movable=0;resizable=0;rotatable=0;deletable=0;editable=0;locked=1;connectable=0;" vertex="1" connectable="0" parent="1">
                    <mxGeometry x="240" y="388" width="220" height="200" as="geometry"/>
                </mxCell>
                <mxCell id="9" value="" style="group;movable=0;resizable=0;rotatable=0;deletable=0;editable=0;locked=1;connectable=0;" vertex="1" connectable="0" parent="8">
                    <mxGeometry width="220" height="200" as="geometry"/>
                </mxCell>
                <mxCell id="10" value="&lt;br&gt;&lt;br&gt;&lt;br&gt;&lt;br&gt;&lt;br&gt;&lt;br&gt;&lt;br&gt;&lt;br&gt;&lt;br&gt;&lt;br&gt;&lt;br&gt;&lt;br&gt;MSHRCtl" style="rounded=0;whiteSpace=wrap;html=1;points=[[0,0,0,0,0],[0,0.09,0,0,0],[0,0.18,0,0,0],[0,0.25,0,0,0],[0,0.27,0,0,0],[0,0.36,0,0,0],[0,0.45,0,0,0],[0,0.5,0,0,0],[0,0.55,0,0,0],[0,0.64,0,0,0],[0,0.73,0,0,0],[0,0.75,0,0,0],[0,0.82,0,0,0],[0,0.91,0,0,0],[0,1,0,0,0],[0.09,0,0,0,0],[0.09,1,0,0,0],[0.18,0,0,0,0],[0.18,1,0,0,0],[0.25,0,0,0,0],[0.25,1,0,0,0],[0.27,0,0,0,0],[0.27,1,0,0,0],[0.36,0,0,0,0],[0.36,1,0,0,0],[0.45,0,0,0,0],[0.45,1,0,0,0],[0.5,0,0,0,0],[0.5,1,0,0,0],[0.55,0,0,0,0],[0.55,1,0,0,0],[0.64,0,0,0,0],[0.64,1,0,0,0],[0.73,0,0,0,0],[0.73,1,0,0,0],[0.75,0,0,0,0],[0.75,1,0,0,0],[0.82,0,0,0,0],[0.82,1,0,0,0],[0.91,0,0,0,0],[0.91,1,0,0,0],[1,0,0,0,0],[1,0.09,0,0,0],[1,0.18,0,0,0],[1,0.25,0,0,0],[1,0.27,0,0,0],[1,0.36,0,0,0],[1,0.45,0,0,0],[1,0.5,0,0,0],[1,0.55,0,0,0],[1,0.64,0,0,0],[1,0.73,0,0,0],[1,0.75,0,0,0],[1,0.82,0,0,0],[1,0.91,0,0,0],[1,1,0,0,0]];align=right;fontColor=#000000;movable=0;resizable=0;rotatable=0;deletable=0;editable=0;locked=1;connectable=0;" vertex="1" parent="9">
                    <mxGeometry width="220" height="200" as="geometry"/>
                </mxCell>
                <mxCell id="11" value="MSHRs" style="rounded=0;whiteSpace=wrap;html=1;movable=0;resizable=0;rotatable=0;deletable=0;editable=0;locked=1;connectable=0;" vertex="1" parent="9">
                    <mxGeometry x="27" y="72" width="110" height="108" as="geometry"/>
                </mxCell>
                <mxCell id="12" value="sourceB" style="rounded=0;whiteSpace=wrap;html=1;movable=0;resizable=0;rotatable=0;deletable=0;editable=0;locked=1;connectable=0;" vertex="1" parent="8">
                    <mxGeometry width="110" height="50" as="geometry"/>
                </mxCell>
                <mxCell id="13" value="AcquireUnit" style="rounded=0;whiteSpace=wrap;html=1;movable=0;resizable=0;rotatable=0;deletable=0;editable=0;locked=1;connectable=0;" vertex="1" parent="8">
                    <mxGeometry x="110" width="110" height="50" as="geometry"/>
                </mxCell>
                <mxCell id="14" style="edgeStyle=orthogonalEdgeStyle;rounded=0;orthogonalLoop=1;jettySize=auto;html=1;exitX=0.5;exitY=1;exitDx=0;exitDy=0;fontColor=#000000;movable=0;resizable=0;rotatable=0;deletable=0;editable=0;locked=1;connectable=0;" edge="1" parent="1">
                    <mxGeometry relative="1" as="geometry">
                        <mxPoint x="151.00000000000045" y="767" as="sourcePoint"/>
                        <mxPoint x="151.00000000000045" y="767" as="targetPoint"/>
                    </mxGeometry>
                </mxCell>
                <mxCell id="15" style="edgeStyle=orthogonalEdgeStyle;rounded=0;orthogonalLoop=1;jettySize=auto;html=1;exitX=1;exitY=0.76;exitDx=0;exitDy=0;entryX=0;entryY=0.8;entryDx=0;entryDy=0;startArrow=none;startFill=0;endArrow=classic;endFill=1;entryPerimeter=0;fontColor=#000000;exitPerimeter=0;movable=0;resizable=0;rotatable=0;deletable=0;editable=0;locked=1;connectable=0;" edge="1" parent="1" source="22" target="29">
                    <mxGeometry relative="1" as="geometry">
                        <Array as="points">
                            <mxPoint x="203" y="743"/>
                            <mxPoint x="203" y="681"/>
                        </Array>
                    </mxGeometry>
                </mxCell>
                <mxCell id="16" style="edgeStyle=orthogonalEdgeStyle;rounded=0;orthogonalLoop=1;jettySize=auto;html=1;entryX=0;entryY=0.5;entryDx=0;entryDy=0;fontSize=11;startArrow=none;startFill=0;endArrow=classic;endFill=1;exitX=0.75;exitY=1;exitDx=0;exitDy=0;fontColor=#000000;exitPerimeter=0;movable=0;resizable=0;rotatable=0;deletable=0;editable=0;locked=1;connectable=0;" edge="1" parent="1" source="22" target="98">
                    <mxGeometry relative="1" as="geometry">
                        <Array as="points">
                            <mxPoint x="140" y="754"/>
                            <mxPoint x="140" y="862"/>
                        </Array>
                    </mxGeometry>
                </mxCell>
                <mxCell id="17" value="w0&lt;sup&gt;%&lt;/sup&gt;" style="edgeLabel;html=1;align=center;verticalAlign=middle;resizable=0;points=[];fontSize=11;fontColor=#000000;movable=0;rotatable=0;deletable=0;editable=0;locked=1;connectable=0;" vertex="1" connectable="0" parent="16">
                    <mxGeometry x="0.3889" y="-1" relative="1" as="geometry">
                        <mxPoint x="-31" y="-62" as="offset"/>
                    </mxGeometry>
                </mxCell>
                <mxCell id="18" style="edgeStyle=orthogonalEdgeStyle;rounded=0;orthogonalLoop=1;jettySize=auto;elbow=vertical;html=1;entryX=0;entryY=0.91;entryDx=0;entryDy=0;entryPerimeter=0;labelBackgroundColor=default;fontSize=11;fontColor=#FFD966;startArrow=none;startFill=0;endArrow=classic;endFill=1;exitX=1;exitY=0.33;exitDx=0;exitDy=0;exitPerimeter=0;dashed=1;movable=0;resizable=0;rotatable=0;deletable=0;editable=0;locked=1;connectable=0;" edge="1" parent="1" source="22" target="10">
                    <mxGeometry relative="1" as="geometry">
                        <Array as="points">
                            <mxPoint x="190" y="724"/>
                            <mxPoint x="190" y="570"/>
                        </Array>
                    </mxGeometry>
                </mxCell>
                <mxCell id="19" value="c&lt;br&gt;resp" style="edgeLabel;html=1;align=center;verticalAlign=middle;resizable=0;points=[];fontSize=11;fontColor=#FFD966;movable=0;rotatable=0;deletable=0;editable=0;locked=1;connectable=0;" vertex="1" connectable="0" parent="18">
                    <mxGeometry x="0.8199" relative="1" as="geometry">
                        <mxPoint x="-30" y="18" as="offset"/>
                    </mxGeometry>
                </mxCell>
                <mxCell id="20" style="edgeStyle=orthogonalEdgeStyle;rounded=0;orthogonalLoop=1;jettySize=auto;html=1;exitX=0.25;exitY=1;exitDx=0;exitDy=0;exitPerimeter=0;entryX=0;entryY=0.5;entryDx=0;entryDy=0;strokeWidth=1;fontColor=#97D077;startArrow=none;startFill=0;endArrow=classic;endFill=1;startSize=6;endSize=6;movable=0;resizable=0;rotatable=0;deletable=0;editable=0;locked=1;connectable=0;" edge="1" parent="1" source="22" target="95">
                    <mxGeometry relative="1" as="geometry"/>
                </mxCell>
                <mxCell id="21" value="&lt;font color=&quot;#000000&quot;&gt;w&lt;sup&gt;@&lt;/sup&gt;&lt;/font&gt;" style="edgeLabel;html=1;align=center;verticalAlign=middle;resizable=0;points=[];fontColor=#97D077;movable=0;rotatable=0;deletable=0;editable=0;locked=1;connectable=0;" vertex="1" connectable="0" parent="20">
                    <mxGeometry x="-0.3062" y="-3" relative="1" as="geometry">
                        <mxPoint y="-10" as="offset"/>
                    </mxGeometry>
                </mxCell>
                <mxCell id="22" value="sinkC" style="rounded=0;whiteSpace=wrap;html=1;points=[[0,0,0,0,0],[0,0.24,0,0,0],[0,0.51,0,0,0],[0,0.76,0,0,0],[0,1,0,0,0],[0.25,0,0,0,0],[0.25,1,0,0,0],[0.5,0,0,0,0],[0.5,1,0,0,0],[0.75,0,0,0,0],[0.75,1,0,0,0],[1,0,0,0,0],[1,0.24,0,0,0],[1,0.33,0,0,0],[1,0.51,0,0,0],[1,0.67,0,0,0],[1,0.76,0,0,0],[1,1,0,0,0]];movable=0;resizable=0;rotatable=0;deletable=0;editable=0;locked=1;connectable=0;" vertex="1" parent="1">
                    <mxGeometry x="61" y="709" width="110" height="45" as="geometry"/>
                </mxCell>
                <mxCell id="23" style="edgeStyle=orthogonalEdgeStyle;rounded=0;orthogonalLoop=1;jettySize=auto;html=1;exitX=1;exitY=0.5;exitDx=0;exitDy=0;entryX=0;entryY=0.4;entryDx=0;entryDy=0;entryPerimeter=0;fontSize=11;fontColor=#000000;startArrow=none;startFill=0;endArrow=classic;endFill=1;movable=0;resizable=0;rotatable=0;deletable=0;editable=0;locked=1;connectable=0;" edge="1" parent="1" source="24" target="29">
                    <mxGeometry relative="1" as="geometry">
                        <Array as="points">
                            <mxPoint x="203" y="610"/>
                            <mxPoint x="203" y="657"/>
                        </Array>
                    </mxGeometry>
                </mxCell>
                <mxCell id="24" value="a_reqBuf" style="rounded=0;whiteSpace=wrap;html=1;movable=0;resizable=0;rotatable=0;deletable=0;editable=0;locked=1;connectable=0;" vertex="1" parent="1">
                    <mxGeometry x="61" y="577" width="110" height="50" as="geometry"/>
                </mxCell>
                <mxCell id="25" style="edgeStyle=orthogonalEdgeStyle;rounded=0;orthogonalLoop=1;jettySize=auto;html=1;exitX=0.67;exitY=1;exitDx=0;exitDy=0;entryX=0;entryY=0.5;entryDx=0;entryDy=0;exitPerimeter=0;fontColor=#000000;movable=0;resizable=0;rotatable=0;deletable=0;editable=0;locked=1;connectable=0;" edge="1" parent="1" source="29" target="41">
                    <mxGeometry relative="1" as="geometry">
                        <Array as="points">
                            <mxPoint x="317" y="727"/>
                            <mxPoint x="317" y="787"/>
                        </Array>
                    </mxGeometry>
                </mxCell>
                <mxCell id="26" value="r&lt;br&gt;s1" style="edgeLabel;html=1;align=center;verticalAlign=middle;resizable=0;points=[];fontSize=11;fontColor=#000000;movable=0;rotatable=0;deletable=0;editable=0;locked=1;connectable=0;" vertex="1" connectable="0" parent="25">
                    <mxGeometry x="-0.4708" y="-2" relative="1" as="geometry">
                        <mxPoint x="2" y="12" as="offset"/>
                    </mxGeometry>
                </mxCell>
                <mxCell id="27" style="edgeStyle=orthogonalEdgeStyle;rounded=0;orthogonalLoop=1;jettySize=auto;html=1;exitX=1;exitY=0.5;exitDx=0;exitDy=0;entryX=0;entryY=0.5;entryDx=0;entryDy=0;startArrow=none;startFill=0;endArrow=classic;endFill=1;fontColor=#000000;movable=0;resizable=0;rotatable=0;deletable=0;editable=0;locked=1;connectable=0;" edge="1" parent="1" source="29" target="91">
                    <mxGeometry relative="1" as="geometry"/>
                </mxCell>
                <mxCell id="28" style="edgeStyle=orthogonalEdgeStyle;rounded=0;orthogonalLoop=1;jettySize=auto;html=1;exitX=0.33;exitY=1;exitDx=0;exitDy=0;exitPerimeter=0;fontSize=11;fontColor=#000000;startArrow=none;startFill=0;endArrow=classic;endFill=1;movable=0;resizable=0;rotatable=0;deletable=0;editable=0;locked=1;connectable=0;" edge="1" parent="1" source="29" target="98">
                    <mxGeometry relative="1" as="geometry"/>
                </mxCell>
                <mxCell id="29" value="reqArb" style="rounded=0;whiteSpace=wrap;html=1;points=[[0,0,0,0,0],[0,0.2,0,0,0],[0,0.4,0,0,0],[0,0.6,0,0,0],[0,0.8,0,0,0],[0,1,0,0,0],[0.25,0,0,0,0],[0.33,1,0,0,0],[0.5,0,0,0,0],[0.67,1,0,0,0],[0.75,0,0,0,0],[1,0,0,0,0],[1,0.25,0,0,0],[1,0.5,0,0,0],[1,0.75,0,0,0],[1,1,0,0,0]];movable=0;resizable=0;rotatable=0;deletable=0;editable=0;locked=1;connectable=0;" vertex="1" parent="1">
                    <mxGeometry x="263" y="633" width="80" height="60" as="geometry"/>
                </mxCell>
                <mxCell id="30" style="edgeStyle=orthogonalEdgeStyle;rounded=0;orthogonalLoop=1;jettySize=auto;html=1;exitX=1;exitY=0.67;exitDx=0;exitDy=0;startArrow=none;startFill=0;endArrow=classic;endFill=1;exitPerimeter=0;fontColor=#000000;movable=0;resizable=0;rotatable=0;deletable=0;editable=0;locked=1;connectable=0;" edge="1" parent="1" source="91" target="44">
                    <mxGeometry relative="1" as="geometry"/>
                </mxCell>
                <mxCell id="31" style="edgeStyle=elbowEdgeStyle;rounded=0;orthogonalLoop=1;jettySize=auto;html=1;exitX=0.91;exitY=0;exitDx=0;exitDy=0;exitPerimeter=0;entryX=0.75;entryY=1;entryDx=0;entryDy=0;entryPerimeter=0;fontSize=11;fontColor=#000000;startArrow=none;startFill=0;endArrow=classic;endFill=1;movable=0;resizable=0;rotatable=0;deletable=0;editable=0;locked=1;connectable=0;" edge="1" parent="1" source="91" target="82">
                    <mxGeometry relative="1" as="geometry">
                        <Array as="points">
                            <mxPoint x="623" y="590"/>
                            <mxPoint x="626" y="590"/>
                            <mxPoint x="623" y="610"/>
                        </Array>
                    </mxGeometry>
                </mxCell>
                <mxCell id="32" value="w1**&lt;br&gt;s5" style="edgeLabel;html=1;align=center;verticalAlign=middle;resizable=0;points=[];fontSize=11;fontColor=#000000;movable=0;rotatable=0;deletable=0;editable=0;locked=1;connectable=0;" vertex="1" connectable="0" parent="31">
                    <mxGeometry x="0.2517" relative="1" as="geometry">
                        <mxPoint y="4" as="offset"/>
                    </mxGeometry>
                </mxCell>
                <mxCell id="33" style="edgeStyle=elbowEdgeStyle;rounded=0;orthogonalLoop=1;jettySize=auto;html=1;entryX=1;entryY=0.5;entryDx=0;entryDy=0;entryPerimeter=0;fontSize=11;fontColor=#000000;startArrow=none;startFill=0;endArrow=classic;endFill=1;jumpStyle=arc;movable=0;resizable=0;rotatable=0;deletable=0;editable=0;locked=1;connectable=0;" edge="1" parent="1" target="51">
                    <mxGeometry relative="1" as="geometry">
                        <Array as="points">
                            <mxPoint x="707" y="540"/>
                        </Array>
                        <mxPoint x="707" y="720" as="sourcePoint"/>
                        <mxPoint x="677" y="359.0000000000001" as="targetPoint"/>
                    </mxGeometry>
                </mxCell>
                <mxCell id="34" style="rounded=0;orthogonalLoop=1;jettySize=auto;html=1;exitX=0.18;exitY=0;exitDx=0;exitDy=0;exitPerimeter=0;entryX=0.82;entryY=1;entryDx=0;entryDy=0;entryPerimeter=0;fontSize=11;fontColor=#000000;startArrow=none;startFill=0;endArrow=classic;endFill=1;edgeStyle=elbowEdgeStyle;movable=0;resizable=0;rotatable=0;deletable=0;editable=0;locked=1;connectable=0;" edge="1" parent="1" source="91" target="10">
                    <mxGeometry relative="1" as="geometry">
                        <Array as="points">
                            <mxPoint x="420" y="610"/>
                            <mxPoint x="400" y="610"/>
                        </Array>
                    </mxGeometry>
                </mxCell>
                <mxCell id="35" value="alloc" style="edgeLabel;html=1;align=center;verticalAlign=middle;resizable=0;points=[];fontSize=11;fontColor=#000000;movable=0;rotatable=0;deletable=0;editable=0;locked=1;connectable=0;" vertex="1" connectable="0" parent="34">
                    <mxGeometry x="0.3021" y="1" relative="1" as="geometry">
                        <mxPoint x="1" y="7" as="offset"/>
                    </mxGeometry>
                </mxCell>
                <mxCell id="36" style="edgeStyle=orthogonalEdgeStyle;rounded=0;orthogonalLoop=1;jettySize=auto;html=1;exitX=0.5;exitY=0;exitDx=0;exitDy=0;entryX=0.5;entryY=1;entryDx=0;entryDy=0;startArrow=classic;startFill=1;fontColor=#000000;movable=0;resizable=0;rotatable=0;deletable=0;editable=0;locked=1;connectable=0;" edge="1" parent="1" source="38">
                    <mxGeometry relative="1" as="geometry">
                        <mxPoint x="503" y="693" as="targetPoint"/>
                    </mxGeometry>
                </mxCell>
                <mxCell id="37" value="&lt;div style=&quot;text-align: justify;&quot;&gt;&amp;nbsp;r&amp;nbsp; | w | rr&lt;/div&gt;s3| s3| s5" style="edgeLabel;html=1;align=center;verticalAlign=middle;resizable=0;points=[];fontSize=11;fontColor=#000000;movable=0;rotatable=0;deletable=0;editable=0;locked=1;connectable=0;" vertex="1" connectable="0" parent="36">
                    <mxGeometry x="0.1815" y="1" relative="1" as="geometry">
                        <mxPoint x="1" y="15" as="offset"/>
                    </mxGeometry>
                </mxCell>
                <mxCell id="38" value="DS" style="rounded=0;whiteSpace=wrap;html=1;movable=0;resizable=0;rotatable=0;deletable=0;editable=0;locked=1;connectable=0;" vertex="1" parent="1">
                    <mxGeometry x="468" y="762" width="70" height="50" as="geometry"/>
                </mxCell>
                <mxCell id="39" style="edgeStyle=orthogonalEdgeStyle;rounded=0;orthogonalLoop=1;jettySize=auto;html=1;exitX=1;exitY=0.25;exitDx=0;exitDy=0;entryX=0.25;entryY=1;entryDx=0;entryDy=0;startArrow=none;startFill=0;fontColor=#000000;movable=0;resizable=0;rotatable=0;deletable=0;editable=0;locked=1;connectable=0;" edge="1" parent="1">
                    <mxGeometry relative="1" as="geometry">
                        <mxPoint x="378" y="774.5" as="sourcePoint"/>
                        <mxPoint x="413" y="693" as="targetPoint"/>
                    </mxGeometry>
                </mxCell>
                <mxCell id="40" value="rr*&lt;br&gt;s3" style="edgeLabel;html=1;align=center;verticalAlign=middle;resizable=0;points=[];fontSize=11;fontColor=#000000;movable=0;rotatable=0;deletable=0;editable=0;locked=1;connectable=0;" vertex="1" connectable="0" parent="39">
                    <mxGeometry x="0.1949" y="2" relative="1" as="geometry">
                        <mxPoint x="1" y="-2" as="offset"/>
                    </mxGeometry>
                </mxCell>
                <mxCell id="41" value="Dir" style="rounded=0;whiteSpace=wrap;html=1;movable=0;resizable=0;rotatable=0;deletable=0;editable=0;locked=1;connectable=0;" vertex="1" parent="1">
                    <mxGeometry x="334" y="762" width="70" height="50" as="geometry"/>
                </mxCell>
                <mxCell id="42" style="edgeStyle=orthogonalEdgeStyle;rounded=0;orthogonalLoop=1;jettySize=auto;html=1;entryX=1;entryY=0.91;entryDx=0;entryDy=0;entryPerimeter=0;labelBackgroundColor=default;fontSize=11;fontColor=#FFD966;startArrow=none;startFill=0;endArrow=classic;endFill=1;elbow=vertical;exitX=0.5;exitY=0;exitDx=0;exitDy=0;dashed=1;movable=0;resizable=0;rotatable=0;deletable=0;editable=0;locked=1;connectable=0;" edge="1" parent="1" source="44" target="10">
                    <mxGeometry relative="1" as="geometry"/>
                </mxCell>
                <mxCell id="43" value="sourceC&lt;br&gt;resp" style="edgeLabel;html=1;align=center;verticalAlign=middle;resizable=0;points=[];fontSize=11;fontColor=#FFD966;movable=0;rotatable=0;deletable=0;editable=0;locked=1;connectable=0;" vertex="1" connectable="0" parent="42">
                    <mxGeometry x="-0.322" y="1" relative="1" as="geometry">
                        <mxPoint x="4" y="-3" as="offset"/>
                    </mxGeometry>
                </mxCell>
                <mxCell id="44" value="sourceC" style="rounded=0;whiteSpace=wrap;html=1;movable=0;resizable=0;rotatable=0;deletable=0;editable=0;locked=1;connectable=0;" vertex="1" parent="1">
                    <mxGeometry x="731" y="648" width="110" height="50" as="geometry"/>
                </mxCell>
                <mxCell id="45" value="sourceD" style="rounded=1;whiteSpace=wrap;html=1;dashed=1;dashPattern=8 8;movable=0;resizable=0;rotatable=0;deletable=0;editable=0;locked=1;connectable=0;" vertex="1" parent="1">
                    <mxGeometry x="61" y="344" width="110" height="50" as="geometry"/>
                </mxCell>
                <mxCell id="46" style="rounded=0;orthogonalLoop=1;jettySize=auto;html=1;exitX=1;exitY=0.25;exitDx=0;exitDy=0;entryX=0;entryY=0.5;entryDx=0;entryDy=0;startArrow=classic;startFill=1;endArrow=none;endFill=0;fontColor=#000000;jumpStyle=arc;edgeStyle=elbowEdgeStyle;movable=0;resizable=0;rotatable=0;deletable=0;editable=0;locked=1;connectable=0;" edge="1" parent="1" source="79" target="57">
                    <mxGeometry relative="1" as="geometry">
                        <Array as="points">
                            <mxPoint x="731" y="460"/>
                            <mxPoint x="720" y="460"/>
                        </Array>
                    </mxGeometry>
                </mxCell>
                <mxCell id="47" style="edgeStyle=elbowEdgeStyle;rounded=0;orthogonalLoop=1;jettySize=auto;html=1;entryX=0.5;entryY=0;entryDx=0;entryDy=0;fontSize=11;fontColor=#000000;startArrow=none;startFill=0;endArrow=classic;endFill=1;entryPerimeter=0;labelBackgroundColor=default;movable=0;resizable=0;rotatable=0;deletable=0;editable=0;locked=1;connectable=0;" edge="1" parent="1" source="79" target="82">
                    <mxGeometry relative="1" as="geometry"/>
                </mxCell>
                <mxCell id="48" style="edgeStyle=elbowEdgeStyle;rounded=0;orthogonalLoop=1;jettySize=auto;elbow=vertical;html=1;entryX=1;entryY=0.5;entryDx=0;entryDy=0;labelBackgroundColor=default;fontSize=11;fontColor=#000000;startArrow=none;startFill=0;endArrow=classic;endFill=1;exitX=0;exitY=0.67;exitDx=0;exitDy=0;exitPerimeter=0;movable=0;resizable=0;rotatable=0;deletable=0;editable=0;locked=1;connectable=0;" edge="1" parent="1" source="51" target="45">
                    <mxGeometry relative="1" as="geometry">
                        <Array as="points">
                            <mxPoint x="340" y="369"/>
                            <mxPoint x="490" y="379"/>
                            <mxPoint x="490" y="384"/>
                        </Array>
                    </mxGeometry>
                </mxCell>
                <mxCell id="49" style="edgeStyle=elbowEdgeStyle;rounded=0;orthogonalLoop=1;jettySize=auto;elbow=vertical;html=1;exitX=0.5;exitY=1;exitDx=0;exitDy=0;exitPerimeter=0;entryX=1;entryY=0.27;entryDx=0;entryDy=0;entryPerimeter=0;labelBackgroundColor=default;fontSize=11;fontColor=#FFD966;startArrow=none;startFill=0;endArrow=classic;endFill=1;dashed=1;jumpStyle=arc;movable=0;resizable=0;rotatable=0;deletable=0;editable=0;locked=1;connectable=0;" edge="1" parent="1" source="51" target="10">
                    <mxGeometry relative="1" as="geometry">
                        <Array as="points">
                            <mxPoint x="520" y="442"/>
                        </Array>
                    </mxGeometry>
                </mxCell>
                <mxCell id="50" value="e resp" style="edgeLabel;html=1;align=center;verticalAlign=middle;resizable=0;points=[];fontSize=11;fontColor=#FFD966;movable=0;rotatable=0;deletable=0;editable=0;locked=1;connectable=0;" vertex="1" connectable="0" parent="49">
                    <mxGeometry x="0.3222" y="2" relative="1" as="geometry">
                        <mxPoint x="4" y="-4" as="offset"/>
                    </mxGeometry>
                </mxCell>
                <mxCell id="51" value="Grant Buf" style="rounded=0;whiteSpace=wrap;html=1;points=[[0,0,0,0,0],[0,0.25,0,0,0],[0,0.33,0,0,0],[0,0.5,0,0,0],[0,0.67,0,0,0],[0,0.75,0,0,0],[0,1,0,0,0],[0.25,0,0,0,0],[0.25,1,0,0,0],[0.5,0,0,0,0],[0.5,1,0,0,0],[0.75,0,0,0,0],[0.75,1,0,0,0],[1,0,0,0,0],[1,0.25,0,0,0],[1,0.5,0,0,0],[1,0.75,0,0,0],[1,1,0,0,0]];movable=0;resizable=0;rotatable=0;deletable=0;editable=0;locked=1;connectable=0;" vertex="1" parent="1">
                    <mxGeometry x="503" y="329" width="160" height="60" as="geometry"/>
                </mxCell>
                <mxCell id="52" style="edgeStyle=orthogonalEdgeStyle;rounded=0;orthogonalLoop=1;jettySize=auto;html=1;exitX=1;exitY=0.25;exitDx=0;exitDy=0;fontSize=11;startArrow=none;startFill=0;endArrow=classic;endFill=1;entryX=0.73;entryY=1;entryDx=0;entryDy=0;entryPerimeter=0;fontColor=#000000;movable=0;resizable=0;rotatable=0;deletable=0;editable=0;locked=1;connectable=0;" edge="1" parent="1">
                    <mxGeometry relative="1" as="geometry">
                        <mxPoint x="570.6999999999998" y="693" as="targetPoint"/>
                        <mxPoint x="355" y="847" as="sourcePoint"/>
                    </mxGeometry>
                </mxCell>
                <mxCell id="53" style="edgeStyle=orthogonalEdgeStyle;rounded=0;orthogonalLoop=1;jettySize=auto;elbow=vertical;html=1;exitX=1;exitY=0.5;exitDx=0;exitDy=0;entryX=0;entryY=0.33;entryDx=0;entryDy=0;entryPerimeter=0;labelBackgroundColor=default;fontSize=11;fontColor=#000000;startArrow=none;startFill=0;endArrow=classic;endFill=1;movable=0;resizable=0;rotatable=0;deletable=0;editable=0;locked=1;connectable=0;" edge="1" parent="1" source="54" target="51">
                    <mxGeometry relative="1" as="geometry">
                        <Array as="points">
                            <mxPoint x="210" y="299"/>
                            <mxPoint x="210" y="349"/>
                        </Array>
                    </mxGeometry>
                </mxCell>
                <mxCell id="54" value="sinke" style="rounded=1;whiteSpace=wrap;html=1;dashed=1;dashPattern=8 8;movable=0;resizable=0;rotatable=0;deletable=0;editable=0;locked=1;connectable=0;" vertex="1" parent="1">
                    <mxGeometry x="61" y="274" width="110" height="50" as="geometry"/>
                </mxCell>
                <mxCell id="55" style="edgeStyle=none;html=1;exitX=0.5;exitY=1;exitDx=0;exitDy=0;dashed=1;dashPattern=1 1;endArrow=oval;endFill=1;endSize=1;movable=0;resizable=0;rotatable=0;deletable=0;editable=0;locked=1;connectable=0;" edge="1" parent="1" source="56">
                    <mxGeometry relative="1" as="geometry">
                        <mxPoint x="-175" y="612" as="targetPoint"/>
                    </mxGeometry>
                </mxCell>
                <mxCell id="56" value="prefetcher" style="rounded=1;whiteSpace=wrap;html=1;dashed=1;dashPattern=8 8;movable=0;resizable=0;rotatable=0;deletable=0;editable=0;locked=1;connectable=0;" vertex="1" parent="1">
                    <mxGeometry x="-230" y="500" width="110" height="50" as="geometry"/>
                </mxCell>
                <mxCell id="57" value="sinkD" style="rounded=1;whiteSpace=wrap;html=1;dashed=1;dashPattern=8 8;movable=0;resizable=0;rotatable=0;deletable=0;editable=0;locked=1;connectable=0;" vertex="1" parent="1">
                    <mxGeometry x="731" y="438" width="110" height="50" as="geometry"/>
                </mxCell>
                <mxCell id="58" style="rounded=0;orthogonalLoop=1;jettySize=auto;html=1;exitX=0.56;exitY=1;exitDx=0;exitDy=0;exitPerimeter=0;fontSize=11;fontColor=#000000;startArrow=none;startFill=0;endArrow=classic;endFill=1;edgeStyle=elbowEdgeStyle;entryX=0.749;entryY=0.001;entryDx=0;entryDy=0;entryPerimeter=0;movable=0;resizable=0;rotatable=0;deletable=0;editable=0;locked=1;connectable=0;" edge="1" parent="1" source="82" target="91">
                    <mxGeometry relative="1" as="geometry">
                        <Array as="points">
                            <mxPoint x="590" y="600"/>
                        </Array>
                        <mxPoint x="590" y="630" as="targetPoint"/>
                    </mxGeometry>
                </mxCell>
                <mxCell id="59" value="rr&lt;br&gt;s3" style="edgeLabel;html=1;align=center;verticalAlign=middle;resizable=0;points=[];fontSize=11;fontColor=#000000;movable=0;rotatable=0;deletable=0;editable=0;locked=1;connectable=0;" vertex="1" connectable="0" parent="58">
                    <mxGeometry x="0.177" y="1" relative="1" as="geometry">
                        <mxPoint x="-1" y="-7" as="offset"/>
                    </mxGeometry>
                </mxCell>
                <mxCell id="60" style="edgeStyle=elbowEdgeStyle;rounded=0;orthogonalLoop=1;jettySize=auto;html=1;entryX=0.5;entryY=0;entryDx=0;entryDy=0;fontSize=11;fontColor=#000000;startArrow=none;startFill=0;endArrow=classic;endFill=1;movable=0;resizable=0;rotatable=0;deletable=0;editable=0;locked=1;connectable=0;" edge="1" parent="1" source="63" target="24">
                    <mxGeometry relative="1" as="geometry"/>
                </mxCell>
                <mxCell id="61" style="edgeStyle=elbowEdgeStyle;rounded=0;orthogonalLoop=1;jettySize=auto;html=1;exitX=1;exitY=0.75;exitDx=0;exitDy=0;entryX=0;entryY=0.73;entryDx=0;entryDy=0;entryPerimeter=0;labelBackgroundColor=default;fontSize=11;fontColor=#000000;startArrow=none;startFill=0;endArrow=classic;endFill=1;elbow=vertical;jumpStyle=arc;movable=0;resizable=0;rotatable=0;deletable=0;editable=0;locked=1;connectable=0;" edge="1" parent="1" source="63" target="10">
                    <mxGeometry relative="1" as="geometry">
                        <Array as="points">
                            <mxPoint x="220" y="534"/>
                        </Array>
                    </mxGeometry>
                </mxCell>
                <mxCell id="62" value="pb&lt;sup&gt;-&lt;/sup&gt;" style="edgeLabel;html=1;align=center;verticalAlign=middle;resizable=0;points=[];fontSize=11;fontColor=#000000;movable=0;rotatable=0;deletable=0;editable=0;locked=1;connectable=0;" vertex="1" connectable="0" parent="61">
                    <mxGeometry x="-0.1595" relative="1" as="geometry">
                        <mxPoint as="offset"/>
                    </mxGeometry>
                </mxCell>
                <mxCell id="63" value="sinkA" style="rounded=0;whiteSpace=wrap;html=1;movable=0;resizable=0;rotatable=0;deletable=0;editable=0;locked=1;connectable=0;" vertex="1" parent="1">
                    <mxGeometry x="61" y="510" width="110" height="50" as="geometry"/>
                </mxCell>
                <mxCell id="64" style="edgeStyle=orthogonalEdgeStyle;rounded=0;orthogonalLoop=1;jettySize=auto;html=1;entryX=1;entryY=0.64;entryDx=0;entryDy=0;fontSize=11;fontColor=#000000;startArrow=classic;startFill=1;endArrow=none;endFill=0;entryPerimeter=0;jumpStyle=arc;movable=0;resizable=0;rotatable=0;deletable=0;editable=0;locked=1;connectable=0;" edge="1" parent="1" source="65" target="79">
                    <mxGeometry relative="1" as="geometry">
                        <Array as="points">
                            <mxPoint x="710" y="513"/>
                            <mxPoint x="710" y="484"/>
                        </Array>
                    </mxGeometry>
                </mxCell>
                <mxCell id="65" value="sourceE" style="rounded=1;whiteSpace=wrap;html=1;dashed=1;dashPattern=8 8;movable=0;resizable=0;rotatable=0;deletable=0;editable=0;locked=1;connectable=0;" vertex="1" parent="1">
                    <mxGeometry x="731" y="487" width="110" height="50" as="geometry"/>
                </mxCell>
                <mxCell id="66" value="sourceA" style="rounded=1;whiteSpace=wrap;html=1;dashed=1;dashPattern=8 8;movable=0;resizable=0;rotatable=0;deletable=0;editable=0;locked=1;connectable=0;" vertex="1" parent="1">
                    <mxGeometry x="731" y="388" width="110" height="50" as="geometry"/>
                </mxCell>
                <mxCell id="67" style="edgeStyle=elbowEdgeStyle;rounded=0;orthogonalLoop=1;jettySize=auto;html=1;entryX=0;entryY=0.6;entryDx=0;entryDy=0;entryPerimeter=0;fontSize=11;fontColor=#000000;startArrow=none;startFill=0;endArrow=classic;endFill=1;movable=0;resizable=0;rotatable=0;deletable=0;editable=0;locked=1;connectable=0;" edge="1" parent="1" source="99" target="29">
                    <mxGeometry relative="1" as="geometry">
                        <Array as="points">
                            <mxPoint x="200" y="669"/>
                        </Array>
                    </mxGeometry>
                </mxCell>
                <mxCell id="68" value="sinkB" style="rounded=1;whiteSpace=wrap;html=1;dashed=1;dashPattern=8 8;movable=0;resizable=0;rotatable=0;deletable=0;editable=0;locked=1;connectable=0;" vertex="1" parent="1">
                    <mxGeometry x="731" y="820" width="110" height="50" as="geometry"/>
                </mxCell>
                <mxCell id="69" value="sourceB" style="rounded=1;whiteSpace=wrap;html=1;dashed=1;dashPattern=8 8;movable=0;resizable=0;rotatable=0;deletable=0;editable=0;locked=1;connectable=0;" vertex="1" parent="1">
                    <mxGeometry x="61" y="415" width="110" height="50" as="geometry"/>
                </mxCell>
                <mxCell id="70" value="&lt;div style=&quot;&quot;&gt;&lt;span style=&quot;background-color: initial;&quot;&gt;* rr = read resp&lt;/span&gt;&lt;/div&gt;**Acquire toT hits on Branch, read data ahead and wait for Grant toT&lt;br&gt;&lt;div style=&quot;&quot;&gt;&lt;span style=&quot;background-color: initial;&quot;&gt;- pb = put buffer&lt;/span&gt;&lt;/div&gt;&lt;div style=&quot;&quot;&gt;&amp;amp; block is given by 1)MainPipe; 2)MSHRCtl; 3)GrantBuf&lt;/div&gt;&lt;div style=&quot;&quot;&gt;@ used for ReleaseData&lt;/div&gt;&lt;div style=&quot;&quot;&gt;&lt;span style=&quot;background-color: initial;&quot;&gt;% id given by MSHRCtl, by comparing all mshr set &amp;amp; tag, used for ProbeAckData&lt;/span&gt;&lt;/div&gt;&lt;div style=&quot;&quot;&gt;&lt;span style=&quot;background-color: initial;&quot;&gt;$ &lt;font&gt;Complicated TODO&lt;/font&gt;&lt;/span&gt;&lt;/div&gt;&lt;div style=&quot;&quot;&gt;&lt;br&gt;&lt;/div&gt;&lt;div style=&quot;&quot;&gt;&lt;br&gt;&lt;/div&gt;" style="text;html=1;align=left;verticalAlign=middle;resizable=0;points=[];autosize=1;movable=0;rotatable=0;deletable=0;editable=0;locked=1;connectable=0;" vertex="1" parent="1">
                    <mxGeometry x="224" y="194" width="450" height="140" as="geometry"/>
                </mxCell>
                <mxCell id="71" value="rr&lt;br style=&quot;border-color: var(--border-color);&quot;&gt;&lt;span style=&quot;&quot;&gt;s3&lt;/span&gt;" style="text;whiteSpace=wrap;html=1;fontSize=11;align=center;verticalAlign=top;horizontal=1;spacingTop=-7;spacingLeft=-17;labelBackgroundColor=default;movable=0;resizable=0;rotatable=0;deletable=0;editable=0;locked=1;connectable=0;" vertex="1" parent="1">
                    <mxGeometry x="538" y="725" width="80" height="27" as="geometry"/>
                </mxCell>
                <mxCell id="72" style="edgeStyle=orthogonalEdgeStyle;rounded=0;orthogonalLoop=1;jettySize=auto;html=1;fontSize=11;startArrow=none;startFill=0;endArrow=classic;endFill=1;exitX=0.82;exitY=1;exitDx=0;exitDy=0;exitPerimeter=0;fontColor=#000000;movable=0;resizable=0;rotatable=0;deletable=0;editable=0;locked=1;connectable=0;" edge="1" parent="1">
                    <mxGeometry relative="1" as="geometry">
                        <mxPoint x="595.8000000000002" y="692" as="sourcePoint"/>
                        <mxPoint x="369" y="876" as="targetPoint"/>
                        <Array as="points">
                            <mxPoint x="599" y="692"/>
                            <mxPoint x="599" y="876"/>
                        </Array>
                    </mxGeometry>
                </mxCell>
                <mxCell id="73" value="w1&lt;br style=&quot;border-color: var(--border-color);&quot;&gt;&lt;span style=&quot;border-color: var(--border-color);&quot;&gt;s5&lt;/span&gt;" style="edgeLabel;html=1;align=center;verticalAlign=middle;resizable=0;points=[];fontSize=11;fontColor=#000000;movable=0;rotatable=0;deletable=0;editable=0;locked=1;connectable=0;" vertex="1" connectable="0" parent="72">
                    <mxGeometry x="-0.6599" relative="1" as="geometry">
                        <mxPoint x="-1" y="-22" as="offset"/>
                    </mxGeometry>
                </mxCell>
                <mxCell id="74" style="edgeStyle=orthogonalEdgeStyle;rounded=0;orthogonalLoop=1;jettySize=auto;html=1;entryX=0.25;entryY=0;entryDx=0;entryDy=0;fontSize=11;startArrow=none;startFill=0;endArrow=classic;endFill=1;fontColor=#000000;movable=0;resizable=0;rotatable=0;deletable=0;editable=0;locked=1;connectable=0;" edge="1" parent="1" source="75" target="98">
                    <mxGeometry relative="1" as="geometry"/>
                </mxCell>
                <mxCell id="75" value="w2&lt;sup&gt;$&lt;/sup&gt;&lt;br&gt;nested" style="text;whiteSpace=wrap;html=1;fontSize=11;align=center;verticalAlign=top;horizontal=1;spacingTop=-7;spacingLeft=0;movable=0;resizable=0;rotatable=0;deletable=0;editable=0;locked=1;connectable=0;" vertex="1" parent="1">
                    <mxGeometry x="224" y="773.5" width="50" height="27" as="geometry"/>
                </mxCell>
                <mxCell id="76" value="" style="edgeStyle=elbowEdgeStyle;rounded=0;orthogonalLoop=1;jettySize=auto;html=1;exitX=0.5;exitY=1;exitDx=0;exitDy=0;exitPerimeter=0;fontSize=11;fontColor=#000000;startArrow=none;startFill=0;endArrow=none;endFill=1;movable=0;resizable=0;rotatable=0;deletable=0;editable=0;locked=1;connectable=0;" edge="1" parent="1" source="82" target="79">
                    <mxGeometry relative="1" as="geometry">
                        <Array as="points"/>
                        <mxPoint x="608" y="313" as="sourcePoint"/>
                        <mxPoint x="563" y="633" as="targetPoint"/>
                    </mxGeometry>
                </mxCell>
                <mxCell id="77" style="edgeStyle=elbowEdgeStyle;rounded=0;orthogonalLoop=1;jettySize=auto;elbow=vertical;html=1;entryX=1;entryY=0.45;entryDx=0;entryDy=0;entryPerimeter=0;labelBackgroundColor=default;fontSize=11;fontColor=#FFD966;startArrow=none;startFill=0;endArrow=classic;endFill=1;dashed=1;movable=0;resizable=0;rotatable=0;deletable=0;editable=0;locked=1;connectable=0;" edge="1" parent="1" source="79" target="10">
                    <mxGeometry relative="1" as="geometry"/>
                </mxCell>
                <mxCell id="78" value="d&lt;br&gt;resp" style="edgeLabel;html=1;align=center;verticalAlign=middle;resizable=0;points=[];fontSize=11;fontColor=#FFD966;movable=0;rotatable=0;deletable=0;editable=0;locked=1;connectable=0;" vertex="1" connectable="0" parent="77">
                    <mxGeometry x="0.0601" y="1" relative="1" as="geometry">
                        <mxPoint x="4" as="offset"/>
                    </mxGeometry>
                </mxCell>
                <mxCell id="79" value="Refill Unit" style="rounded=0;whiteSpace=wrap;html=1;points=[[0,0,0,0,0],[0,0.25,0,0,0],[0,0.5,0,0,0],[0,0.75,0,0,0],[0,1,0,0,0],[0.24,1,0,0,0],[0.26,0,0,0,0],[0.5,0,0,0,0],[0.5,1,0,0,0],[0.74,1,0,0,0],[0.76,0,0,0,0],[1,0,0,0,0],[1,0.09,0,0,0],[1,0.18,0,0,0],[1,0.25,0,0,0],[1,0.27,0,0,0],[1,0.36,0,0,0],[1,0.45,0,0,0],[1,0.5,0,0,0],[1,0.55,0,0,0],[1,0.64,0,0,0],[1,0.73,0,0,0],[1,0.75,0,0,0],[1,0.82,0,0,0],[1,0.91,0,0,0],[1,1,0,0,0]];movable=0;resizable=0;rotatable=0;deletable=0;editable=0;locked=1;connectable=0;" vertex="1" parent="1">
                    <mxGeometry x="503" y="452" width="160" height="50" as="geometry"/>
                </mxCell>
                <mxCell id="80" value="" style="edgeStyle=elbowEdgeStyle;rounded=0;orthogonalLoop=1;jettySize=auto;html=1;exitX=0.5;exitY=1;exitDx=0;exitDy=0;exitPerimeter=0;fontSize=11;fontColor=#000000;startArrow=none;startFill=0;endArrow=none;endFill=1;movable=0;resizable=0;rotatable=0;deletable=0;editable=0;locked=1;connectable=0;" edge="1" parent="1" source="79" target="82">
                    <mxGeometry relative="1" as="geometry">
                        <Array as="points"/>
                        <mxPoint x="612.0000000000005" y="510" as="sourcePoint"/>
                        <mxPoint x="563" y="633" as="targetPoint"/>
                    </mxGeometry>
                </mxCell>
                <mxCell id="81" value="w0" style="edgeLabel;html=1;align=center;verticalAlign=middle;resizable=0;points=[];fontSize=11;fontColor=#000000;labelBackgroundColor=default;movable=0;rotatable=0;deletable=0;editable=0;locked=1;connectable=0;" vertex="1" connectable="0" parent="80">
                    <mxGeometry x="-0.3905" relative="1" as="geometry">
                        <mxPoint y="2" as="offset"/>
                    </mxGeometry>
                </mxCell>
                <mxCell id="82" value="Refill Buf" style="rounded=0;whiteSpace=wrap;html=1;points=[[0,0,0,0,0],[0,0.25,0,0,0],[0,0.5,0,0,0],[0,0.75,0,0,0],[0,1,0,0,0],[0.06,1,0,0,0],[0.13,1,0,0,0],[0.19,1,0,0,0],[0.25,0,0,0,0],[0.25,1,0,0,0],[0.31,1,0,0,0],[0.38,1,0,0,0],[0.44,1,0,0,0],[0.5,0,0,0,0],[0.5,1,0,0,0],[0.56,1,0,0,0],[0.63,1,0,0,0],[0.69,1,0,0,0],[0.75,0,0,0,0],[0.75,1,0,0,0],[0.81,1,0,0,0],[0.88,1,0,0,0],[0.94,1,0,0,0],[1,0,0,0,0],[1,0.25,0,0,0],[1,0.5,0,0,0],[1,0.75,0,0,0],[1,1,0,0,0]];movable=0;resizable=0;rotatable=0;deletable=0;editable=0;locked=1;connectable=0;" vertex="1" parent="1">
                    <mxGeometry x="503" y="528" width="160" height="60" as="geometry"/>
                </mxCell>
                <mxCell id="83" style="edgeStyle=orthogonalEdgeStyle;rounded=0;orthogonalLoop=1;jettySize=auto;html=1;entryX=1;entryY=0.5;entryDx=0;entryDy=0;fontSize=11;fontColor=#000000;startArrow=none;startFill=0;endArrow=classic;endFill=1;movable=0;resizable=0;rotatable=0;deletable=0;editable=0;locked=1;connectable=0;" edge="1" parent="1" source="12" target="69">
                    <mxGeometry relative="1" as="geometry">
                        <Array as="points">
                            <mxPoint x="210" y="413"/>
                            <mxPoint x="210" y="440"/>
                        </Array>
                    </mxGeometry>
                </mxCell>
                <mxCell id="84" value="sinkE" style="rounded=1;whiteSpace=wrap;html=1;dashed=1;dashPattern=8 8;movable=0;resizable=0;rotatable=0;deletable=0;editable=0;locked=1;connectable=0;" vertex="1" parent="1">
                    <mxGeometry x="61" y="274" width="110" height="50" as="geometry"/>
                </mxCell>
                <mxCell id="85" value="sourceD" style="rounded=1;whiteSpace=wrap;html=1;dashed=1;dashPattern=8 8;movable=0;resizable=0;rotatable=0;deletable=0;editable=0;locked=1;connectable=0;" vertex="1" parent="1">
                    <mxGeometry x="61" y="344" width="110" height="50" as="geometry"/>
                </mxCell>
                <mxCell id="86" value="sourceB" style="rounded=1;whiteSpace=wrap;html=1;dashed=1;dashPattern=8 8;movable=0;resizable=0;rotatable=0;deletable=0;editable=0;locked=1;connectable=0;" vertex="1" parent="1">
                    <mxGeometry x="61" y="415" width="110" height="50" as="geometry"/>
                </mxCell>
                <mxCell id="87" value="sinkA" style="rounded=0;whiteSpace=wrap;html=1;movable=0;resizable=0;rotatable=0;deletable=0;editable=0;locked=1;connectable=0;" vertex="1" parent="1">
                    <mxGeometry x="61" y="510" width="110" height="50" as="geometry"/>
                </mxCell>
                <mxCell id="88" value="block&lt;sup style=&quot;font-size: 10px;&quot;&gt;&amp;amp;&amp;nbsp;&amp;nbsp;&lt;/sup&gt;" style="text;html=1;align=center;verticalAlign=middle;resizable=0;points=[];autosize=1;fontSize=10;movable=0;rotatable=0;deletable=0;editable=0;locked=1;connectable=0;" vertex="1" parent="1">
                    <mxGeometry x="259" y="594" width="60" height="30" as="geometry"/>
                </mxCell>
                <mxCell id="89" value="" style="endArrow=classic;html=1;rounded=0;entryX=0.25;entryY=0;entryDx=0;entryDy=0;entryPerimeter=0;exitX=0.4;exitY=0.767;exitDx=0;exitDy=0;exitPerimeter=0;movable=0;resizable=0;rotatable=0;deletable=0;editable=0;locked=1;connectable=0;" edge="1" parent="1" source="88" target="29">
                    <mxGeometry width="50" height="50" relative="1" as="geometry">
                        <mxPoint x="300" y="633" as="sourcePoint"/>
                        <mxPoint x="290" y="630" as="targetPoint"/>
                    </mxGeometry>
                </mxCell>
                <mxCell id="90" style="edgeStyle=none;html=1;exitX=1;exitY=0.33;exitDx=0;exitDy=0;exitPerimeter=0;movable=0;resizable=0;rotatable=0;deletable=0;editable=0;locked=1;connectable=0;" edge="1" parent="1" source="91">
                    <mxGeometry relative="1" as="geometry">
                        <mxPoint x="690" y="720" as="targetPoint"/>
                        <Array as="points">
                            <mxPoint x="690" y="653"/>
                        </Array>
                    </mxGeometry>
                </mxCell>
                <mxCell id="91" value="MainPipe" style="rounded=0;whiteSpace=wrap;html=1;glass=0;shadow=0;points=[[0,0,0,0,0],[0,0.25,0,0,0],[0,0.5,0,0,0],[0,0.75,0,0,0],[0,1,0,0,0],[0.09,0,0,0,0],[0.09,1,0,0,0],[0.18,0,0,0,0],[0.18,1,0,0,0],[0.27,0,0,0,0],[0.27,1,0,0,0],[0.36,0,0,0,0],[0.36,1,0,0,0],[0.45,0,0,0,0],[0.45,1,0,0,0],[0.55,0,0,0,0],[0.55,1,0,0,0],[0.64,0,0,0,0],[0.64,1,0,0,0],[0.73,0,0,0,0],[0.73,1,0,0,0],[0.82,0,0,0,0],[0.82,1,0,0,0],[0.91,0,0,0,0],[0.91,1,0,0,0],[1,0,0,0,0],[1,0.25,0,0,0],[1,0.33,0,0,0],[1,0.5,0,0,0],[1,0.67,0,0,0],[1,0.75,0,0,0],[1,1,0,0,0]];movable=0;resizable=0;rotatable=0;deletable=0;editable=0;locked=1;connectable=0;" vertex="1" parent="1">
                    <mxGeometry x="373" y="633" width="290" height="60" as="geometry"/>
                </mxCell>
                <mxCell id="92" style="rounded=0;orthogonalLoop=1;jettySize=auto;html=1;exitX=0.33;exitY=1;exitDx=0;exitDy=0;exitPerimeter=0;fontSize=11;fontColor=#000000;startArrow=none;startFill=0;endArrow=classic;endFill=1;entryX=0.5;entryY=0;entryDx=0;entryDy=0;movable=0;resizable=0;rotatable=0;deletable=0;editable=0;locked=1;connectable=0;" edge="1" parent="1">
                    <mxGeometry relative="1" as="geometry">
                        <mxPoint x="299.4000000000001" y="694" as="sourcePoint"/>
                        <mxPoint x="299" y="903" as="targetPoint"/>
                    </mxGeometry>
                </mxCell>
                <mxCell id="93" style="edgeStyle=elbowEdgeStyle;rounded=0;orthogonalLoop=1;jettySize=auto;html=1;exitX=1;exitY=0.5;exitDx=0;exitDy=0;entryX=0.91;entryY=1;entryDx=0;entryDy=0;entryPerimeter=0;strokeWidth=1;fontColor=#000000;startArrow=none;startFill=0;endArrow=classic;endFill=1;startSize=6;endSize=6;movable=0;resizable=0;rotatable=0;deletable=0;editable=0;locked=1;connectable=0;" edge="1" parent="1" source="95">
                    <mxGeometry relative="1" as="geometry">
                        <mxPoint x="364" y="933" as="sourcePoint"/>
                        <mxPoint x="631.9000000000001" y="693" as="targetPoint"/>
                        <Array as="points">
                            <mxPoint x="632" y="800"/>
                        </Array>
                    </mxGeometry>
                </mxCell>
                <mxCell id="94" value="rr&lt;br&gt;s3" style="edgeLabel;html=1;align=center;verticalAlign=middle;resizable=0;points=[];fontColor=#000000;movable=0;rotatable=0;deletable=0;editable=0;locked=1;connectable=0;" vertex="1" connectable="0" parent="93">
                    <mxGeometry x="0.8343" y="2" relative="1" as="geometry">
                        <mxPoint x="1" y="2" as="offset"/>
                    </mxGeometry>
                </mxCell>
                <mxCell id="95" value="data Buf" style="rounded=0;whiteSpace=wrap;html=1;movable=0;resizable=0;rotatable=0;deletable=0;editable=0;locked=1;connectable=0;" vertex="1" parent="1">
                    <mxGeometry x="209" y="903" width="160" height="47" as="geometry"/>
                </mxCell>
                <mxCell id="96" value="" style="rounded=0;whiteSpace=wrap;html=1;shadow=0;glass=0;labelBackgroundColor=#FFFFFF;sketch=0;movable=0;resizable=0;rotatable=0;deletable=0;editable=0;locked=1;connectable=0;" vertex="1" parent="1">
                    <mxGeometry x="283.5" y="721.5" width="21" height="28.5" as="geometry"/>
                </mxCell>
                <mxCell id="97" value="&amp;nbsp; r&amp;nbsp;&amp;nbsp;&lt;br style=&quot;border-color: var(--border-color); font-size: 11px; background-color: rgb(255, 255, 255);&quot;&gt;&lt;span style=&quot;font-size: 11px; background-color: rgb(255, 255, 255);&quot;&gt;s2&lt;/span&gt;" style="text;html=1;align=center;verticalAlign=middle;resizable=0;points=[];autosize=1;movable=0;rotatable=0;deletable=0;editable=0;locked=1;connectable=0;" vertex="1" parent="1">
                    <mxGeometry x="274" y="714.75" width="40" height="40" as="geometry"/>
                </mxCell>
                <mxCell id="98" value="Release Buf" style="rounded=0;whiteSpace=wrap;html=1;movable=0;resizable=0;rotatable=0;deletable=0;editable=0;locked=1;connectable=0;" vertex="1" parent="1">
                    <mxGeometry x="209" y="832" width="160" height="60" as="geometry"/>
                </mxCell>
                <mxCell id="99" value="sinkB" style="rounded=1;whiteSpace=wrap;html=1;dashed=1;dashPattern=8 8;movable=0;resizable=0;rotatable=0;deletable=0;editable=0;locked=1;connectable=0;" vertex="1" parent="1">
                    <mxGeometry x="61" y="643" width="110" height="50" as="geometry"/>
                </mxCell>
                <mxCell id="100" value="" style="endArrow=classic;html=1;dashed=1;dashPattern=1 1;fontSize=9;curved=1;entryX=1;entryY=0.5;entryDx=0;entryDy=0;movable=0;resizable=0;rotatable=0;deletable=0;editable=0;locked=1;connectable=0;" edge="1" parent="1" target="102">
                    <mxGeometry width="50" height="50" relative="1" as="geometry">
                        <mxPoint x="60" y="370" as="sourcePoint"/>
                        <mxPoint x="-220" y="370" as="targetPoint"/>
                    </mxGeometry>
                </mxCell>
                <mxCell id="101" value="Ack" style="edgeLabel;html=1;align=center;verticalAlign=middle;resizable=0;points=[];fontSize=9;movable=0;rotatable=0;deletable=0;editable=0;locked=1;connectable=0;" vertex="1" connectable="0" parent="100">
                    <mxGeometry x="-0.0604" y="1" relative="1" as="geometry">
                        <mxPoint as="offset"/>
                    </mxGeometry>
                </mxCell>
                <mxCell id="102" value="Channel&lt;div&gt;D&lt;/div&gt;" style="ellipse;whiteSpace=wrap;html=1;fontSize=9;fontStyle=1;movable=0;resizable=0;rotatable=0;deletable=0;editable=0;locked=1;connectable=0;" vertex="1" parent="1">
                    <mxGeometry x="-270" y="346" width="40" height="46" as="geometry"/>
                </mxCell>
                <mxCell id="103" style="edgeStyle=none;curved=1;html=1;exitX=1;exitY=0.5;exitDx=0;exitDy=0;fontSize=9;entryX=0.06;entryY=1.091;entryDx=0;entryDy=0;entryPerimeter=0;movable=0;resizable=0;rotatable=0;deletable=0;editable=0;locked=1;connectable=0;" edge="1" parent="1" source="104">
                    <mxGeometry relative="1" as="geometry">
                        <mxPoint x="-123.63999999999987" y="615.3599999999999" as="targetPoint"/>
                    </mxGeometry>
                </mxCell>
                <mxCell id="104" value="Channel&lt;div&gt;A&lt;/div&gt;" style="ellipse;whiteSpace=wrap;html=1;fontSize=9;fontStyle=1;movable=0;resizable=0;rotatable=0;deletable=0;editable=0;locked=1;connectable=0;" vertex="1" parent="1">
                    <mxGeometry x="-270" y="592" width="40" height="46" as="geometry"/>
                </mxCell>
                <mxCell id="105" style="edgeStyle=none;html=1;entryX=1;entryY=0.5;entryDx=0;entryDy=0;movable=0;resizable=0;rotatable=0;deletable=0;editable=0;locked=1;connectable=0;" edge="1" parent="1" target="109">
                    <mxGeometry relative="1" as="geometry">
                        <mxPoint x="-320" y="980" as="targetPoint"/>
                        <mxPoint x="690" y="760" as="sourcePoint"/>
                        <Array as="points">
                            <mxPoint x="690" y="973"/>
                        </Array>
                    </mxGeometry>
                </mxCell>
                <mxCell id="106" value="sourceMD" style="rounded=1;whiteSpace=wrap;html=1;dashed=1;dashPattern=8 8;movable=0;resizable=0;rotatable=0;deletable=0;editable=0;locked=1;connectable=0;" vertex="1" parent="1">
                    <mxGeometry x="650" y="721.5" width="110" height="50" as="geometry"/>
                </mxCell>
                <mxCell id="107" style="edgeStyle=none;html=1;exitX=1;exitY=0.5;exitDx=0;exitDy=0;entryX=0.849;entryY=1.091;entryDx=0;entryDy=0;entryPerimeter=0;movable=0;resizable=0;rotatable=0;deletable=0;editable=0;locked=1;connectable=0;" edge="1" parent="1" source="108">
                    <mxGeometry relative="1" as="geometry">
                        <mxPoint x="-123.63999999999987" y="738.444" as="targetPoint"/>
                    </mxGeometry>
                </mxCell>
                <mxCell id="108" value="Channel&lt;div&gt;C&lt;/div&gt;" style="ellipse;whiteSpace=wrap;html=1;fontSize=9;fontStyle=1;movable=0;resizable=0;rotatable=0;deletable=0;editable=0;locked=1;connectable=0;" vertex="1" parent="1">
                    <mxGeometry x="-270" y="716" width="40" height="46" as="geometry"/>
                </mxCell>
                <mxCell id="109" value="Channel&lt;div&gt;M&lt;/div&gt;" style="ellipse;whiteSpace=wrap;html=1;fontSize=9;fontStyle=1;movable=0;resizable=0;rotatable=0;deletable=0;editable=0;locked=1;connectable=0;" vertex="1" parent="1">
                    <mxGeometry x="-270" y="950" width="40" height="46" as="geometry"/>
                </mxCell>
                <mxCell id="110" value="Channel&lt;div&gt;B&lt;/div&gt;" style="ellipse;whiteSpace=wrap;html=1;fontSize=9;fontStyle=1;movable=0;resizable=0;rotatable=0;deletable=0;editable=0;locked=1;connectable=0;" vertex="1" parent="1">
                    <mxGeometry x="910" y="822" width="40" height="46" as="geometry"/>
                </mxCell>
                <mxCell id="111" value="Channel&lt;div&gt;C&lt;/div&gt;" style="ellipse;whiteSpace=wrap;html=1;fontSize=9;fontStyle=1;movable=0;resizable=0;rotatable=0;deletable=0;editable=0;locked=1;connectable=0;" vertex="1" parent="1">
                    <mxGeometry x="910" y="648" width="40" height="46" as="geometry"/>
                </mxCell>
                <mxCell id="112" value="Channel&lt;div&gt;E&lt;/div&gt;" style="ellipse;whiteSpace=wrap;html=1;fontSize=9;fontStyle=1;movable=0;resizable=0;rotatable=0;deletable=0;editable=0;locked=1;connectable=0;" vertex="1" parent="1">
                    <mxGeometry x="910" y="491" width="40" height="46" as="geometry"/>
                </mxCell>
                <mxCell id="113" value="" style="endArrow=classic;html=1;movable=0;resizable=0;rotatable=0;deletable=0;editable=0;locked=1;connectable=0;" edge="1" parent="1">
                    <mxGeometry width="50" height="50" relative="1" as="geometry">
                        <mxPoint x="841" y="513.5" as="sourcePoint"/>
                        <mxPoint x="910" y="514" as="targetPoint"/>
                    </mxGeometry>
                </mxCell>
                <mxCell id="114" value="" style="endArrow=classic;html=1;movable=0;resizable=0;rotatable=0;deletable=0;editable=0;locked=1;connectable=0;" edge="1" parent="1">
                    <mxGeometry width="50" height="50" relative="1" as="geometry">
                        <mxPoint x="841" y="672.5" as="sourcePoint"/>
                        <mxPoint x="910" y="673" as="targetPoint"/>
                    </mxGeometry>
                </mxCell>
                <mxCell id="115" value="" style="endArrow=classic;html=1;movable=0;resizable=0;rotatable=0;deletable=0;editable=0;locked=1;connectable=0;" edge="1" parent="1">
                    <mxGeometry width="50" height="50" relative="1" as="geometry">
                        <mxPoint x="841" y="844.5" as="sourcePoint"/>
                        <mxPoint x="910" y="845" as="targetPoint"/>
                    </mxGeometry>
                </mxCell>
                <mxCell id="116" style="edgeStyle=none;html=1;exitX=0.25;exitY=0;exitDx=0;exitDy=0;movable=0;resizable=0;rotatable=0;deletable=0;editable=0;locked=1;connectable=0;" edge="1" parent="1" source="118">
                    <mxGeometry relative="1" as="geometry">
                        <mxPoint x="60" y="540" as="targetPoint"/>
                        <Array as="points">
                            <mxPoint y="636"/>
                        </Array>
                    </mxGeometry>
                </mxCell>
                <mxCell id="117" style="edgeStyle=none;html=1;exitX=0.75;exitY=0;exitDx=0;exitDy=0;movable=0;resizable=0;rotatable=0;deletable=0;editable=0;locked=1;connectable=0;" edge="1" parent="1" source="118">
                    <mxGeometry relative="1" as="geometry">
                        <mxPoint x="60" y="740" as="targetPoint"/>
                        <Array as="points">
                            <mxPoint x="-10" y="720"/>
                        </Array>
                    </mxGeometry>
                </mxCell>
                <mxCell id="118" value="&lt;p style=&quot;line-height: 100%;&quot;&gt;&lt;font style=&quot;color: rgb(255, 255, 255);&quot;&gt;sinkMA&lt;/font&gt;&lt;/p&gt;" style="shape=trapezoid;perimeter=trapezoidPerimeter;whiteSpace=wrap;html=1;fixedSize=1;fontSize=12;direction=south;movable=0;resizable=0;rotatable=0;deletable=0;editable=0;locked=1;connectable=0;" vertex="1" parent="1">
                    <mxGeometry x="-120" y="594" width="40" height="166" as="geometry"/>
                </mxCell>
                <mxCell id="119" value="MU Get" style="text;html=1;align=center;verticalAlign=middle;resizable=0;points=[];autosize=1;strokeColor=none;fillColor=none;fontStyle=1;fontSize=15;" vertex="1" parent="1">
                    <mxGeometry x="-390" y="627" width="80" height="30" as="geometry"/>
                </mxCell>
                <mxCell id="122" value="" style="endArrow=none;html=1;strokeWidth=7;strokeColor=#FF0000;" edge="1" parent="1">
                    <mxGeometry width="50" height="50" relative="1" as="geometry">
                        <mxPoint x="-320" y="643" as="sourcePoint"/>
                        <mxPoint x="-220" y="970" as="targetPoint"/>
                        <Array as="points">
                            <mxPoint x="10" y="643"/>
                            <mxPoint x="70" y="540"/>
                            <mxPoint x="120" y="540"/>
                            <mxPoint x="120" y="610"/>
                            <mxPoint x="200" y="610"/>
                            <mxPoint x="200" y="660"/>
                            <mxPoint x="690" y="660"/>
                            <mxPoint x="690" y="970"/>
                        </Array>
                    </mxGeometry>
                </mxCell>
                <mxCell id="125" value="" style="endArrow=classic;html=1;strokeWidth=6;strokeColor=#FF0000;" edge="1" parent="1">
                    <mxGeometry width="50" height="50" relative="1" as="geometry">
                        <mxPoint x="330" y="660" as="sourcePoint"/>
                        <mxPoint x="360" y="780" as="targetPoint"/>
                        <Array as="points">
                            <mxPoint x="330" y="780"/>
                        </Array>
                    </mxGeometry>
                </mxCell>
                <mxCell id="127" value="" style="endArrow=classic;html=1;strokeWidth=6;strokeColor=#FF0000;" edge="1" parent="1">
                    <mxGeometry width="50" height="50" relative="1" as="geometry">
                        <mxPoint x="490" y="661.5" as="sourcePoint"/>
                        <mxPoint x="490" y="760" as="targetPoint"/>
                    </mxGeometry>
                </mxCell>
                <mxCell id="126" value="" style="endArrow=classic;html=1;strokeWidth=6;strokeColor=#FF0000;" edge="1" parent="1">
                    <mxGeometry width="50" height="50" relative="1" as="geometry">
                        <mxPoint x="390" y="782" as="sourcePoint"/>
                        <mxPoint x="420" y="690" as="targetPoint"/>
                        <Array as="points">
                            <mxPoint x="420" y="781.5"/>
                        </Array>
                    </mxGeometry>
                </mxCell>
                <mxCell id="128" value="" style="endArrow=classic;html=1;strokeWidth=6;strokeColor=#FF0000;" edge="1" parent="1">
                    <mxGeometry width="50" height="50" relative="1" as="geometry">
                        <mxPoint x="530" y="760" as="sourcePoint"/>
                        <mxPoint x="530" y="661.5" as="targetPoint"/>
                    </mxGeometry>
                </mxCell>
            </root>
        </mxGraphModel>
    </diagram>
</mxfile>